  0
SECTION
  2
BLOCKS
  0
ENDSEC
  0
SECTION
  2
ENTITIES
  0
LINE
  8
0
 10
-0.000991821
 20
-7.49998
 11
0
 21
-7.5
  0
LINE
  8
0
 10
0
 20
-7.5
 11
0.13089
 21
-7.49886
  0
LINE
  8
0
 10
0.13089
 20
-7.49886
 11
0.261734
 21
-7.49542
  0
LINE
  8
0
 10
0.261734
 20
-7.49542
 11
0.392517
 21
-7.48972
  0
LINE
  8
0
 10
0.392517
 20
-7.48972
 11
0.523163
 21
-7.48172
  0
LINE
  8
0
 10
0.523163
 20
-7.48172
 11
0.653656
 21
-7.47145
  0
LINE
  8
0
 10
0.653656
 20
-7.47145
 11
0.783951
 21
-7.45891
  0
LINE
  8
0
 10
0.783951
 20
-7.45891
 11
0.914017
 21
-7.44409
  0
LINE
  8
0
 10
0.914017
 20
-7.44409
 11
1.04379
 21
-7.427
  0
LINE
  8
0
 10
1.04379
 20
-7.427
 11
1.17325
 21
-7.40765
  0
LINE
  8
0
 10
1.17325
 20
-7.40765
 11
1.30235
 21
-7.38605
  0
LINE
  8
0
 10
1.30235
 20
-7.38605
 11
1.43106
 21
-7.3622
  0
LINE
  8
0
 10
1.43106
 20
-7.3622
 11
1.55933
 21
-7.33611
  0
LINE
  8
0
 10
1.55933
 20
-7.33611
 11
1.68712
 21
-7.30777
  0
LINE
  8
0
 10
1.68712
 20
-7.30777
 11
1.81441
 21
-7.27721
  0
LINE
  8
0
 10
1.81441
 20
-7.27721
 11
1.94113
 21
-7.24443
  0
LINE
  8
0
 10
1.94113
 20
-7.24443
 11
2.06728
 21
-7.20946
  0
LINE
  8
0
 10
2.06728
 20
-7.20946
 11
2.19278
 21
-7.17227
  0
LINE
  8
0
 10
2.19278
 20
-7.17227
 11
2.31763
 21
-7.13292
  0
LINE
  8
0
 10
2.31763
 20
-7.13292
 11
2.44176
 21
-7.09138
  0
LINE
  8
0
 10
2.44176
 20
-7.09138
 11
2.56514
 21
-7.04768
  0
LINE
  8
0
 10
2.56514
 20
-7.04768
 11
2.68776
 21
-7.00185
  0
LINE
  8
0
 10
2.68776
 20
-7.00185
 11
2.80954
 21
-6.95387
  0
LINE
  8
0
 10
2.80954
 20
-6.95387
 11
2.93048
 21
-6.90378
  0
LINE
  8
0
 10
2.93048
 20
-6.90378
 11
3.05052
 21
-6.85158
  0
LINE
  8
0
 10
3.05052
 20
-6.85158
 11
3.16963
 21
-6.7973
  0
LINE
  8
0
 10
3.16963
 20
-6.7973
 11
3.28778
 21
-6.74095
  0
LINE
  8
0
 10
3.28778
 20
-6.74095
 11
3.40492
 21
-6.68254
  0
LINE
  8
0
 10
3.40492
 20
-6.68254
 11
3.52103
 21
-6.6221
  0
LINE
  8
0
 10
3.52103
 20
-6.6221
 11
3.63606
 21
-6.55965
  0
LINE
  8
0
 10
3.63606
 20
-6.55965
 11
3.75
 21
-6.49518
  0
LINE
  8
0
 10
3.75
 20
-6.49518
 11
3.86278
 21
-6.42874
  0
LINE
  8
0
 10
3.86278
 20
-6.42874
 11
3.97438
 21
-6.36035
  0
LINE
  8
0
 10
3.97438
 20
-6.36035
 11
4.08478
 21
-6.29002
  0
LINE
  8
0
 10
4.08478
 20
-6.29002
 11
4.19394
 21
-6.21777
  0
LINE
  8
0
 10
4.19394
 20
-6.21777
 11
4.30182
 21
-6.14363
  0
LINE
  8
0
 10
4.30182
 20
-6.14363
 11
4.40839
 21
-6.06763
  0
LINE
  8
0
 10
4.40839
 20
-6.06763
 11
4.51361
 21
-5.98976
  0
LINE
  8
0
 10
4.51361
 20
-5.98976
 11
4.61745
 21
-5.91008
  0
LINE
  8
0
 10
4.61745
 20
-5.91008
 11
4.71989
 21
-5.82858
  0
LINE
  8
0
 10
4.71989
 20
-5.82858
 11
4.82089
 21
-5.74533
  0
LINE
  8
0
 10
4.82089
 20
-5.74533
 11
4.92044
 21
-5.66031
  0
LINE
  8
0
 10
4.92044
 20
-5.66031
 11
5.01848
 21
-5.57358
  0
LINE
  8
0
 10
5.01848
 20
-5.57358
 11
5.11497
 21
-5.48514
  0
LINE
  8
0
 10
5.11497
 20
-5.48514
 11
5.20993
 21
-5.39503
  0
LINE
  8
0
 10
5.20993
 20
-5.39503
 11
5.3033
 21
-5.3033
  0
LINE
  8
0
 10
5.3033
 20
-5.3033
 11
5.39503
 21
-5.20993
  0
LINE
  8
0
 10
5.39503
 20
-5.20993
 11
5.48514
 21
-5.11497
  0
LINE
  8
0
 10
5.48514
 20
-5.11497
 11
5.57358
 21
-5.01848
  0
LINE
  8
0
 10
5.57358
 20
-5.01848
 11
5.66031
 21
-4.92044
  0
LINE
  8
0
 10
5.66031
 20
-4.92044
 11
5.74533
 21
-4.82089
  0
LINE
  8
0
 10
5.74533
 20
-4.82089
 11
5.82858
 21
-4.71989
  0
LINE
  8
0
 10
5.82858
 20
-4.71989
 11
5.91008
 21
-4.61745
  0
LINE
  8
0
 10
5.91008
 20
-4.61745
 11
5.98976
 21
-4.51361
  0
LINE
  8
0
 10
5.98976
 20
-4.51361
 11
6.06763
 21
-4.40839
  0
LINE
  8
0
 10
6.06763
 20
-4.40839
 11
6.14363
 21
-4.30182
  0
LINE
  8
0
 10
6.14363
 20
-4.30182
 11
6.21777
 21
-4.19394
  0
LINE
  8
0
 10
6.21777
 20
-4.19394
 11
6.29002
 21
-4.08478
  0
LINE
  8
0
 10
6.29002
 20
-4.08478
 11
6.36035
 21
-3.97438
  0
LINE
  8
0
 10
6.36035
 20
-3.97438
 11
6.42874
 21
-3.86278
  0
LINE
  8
0
 10
6.42874
 20
-3.86278
 11
6.49518
 21
-3.75
  0
LINE
  8
0
 10
6.49518
 20
-3.75
 11
6.55965
 21
-3.63606
  0
LINE
  8
0
 10
6.55965
 20
-3.63606
 11
6.6221
 21
-3.52103
  0
LINE
  8
0
 10
6.6221
 20
-3.52103
 11
6.68254
 21
-3.40492
  0
LINE
  8
0
 10
6.68254
 20
-3.40492
 11
6.74095
 21
-3.28778
  0
LINE
  8
0
 10
6.74095
 20
-3.28778
 11
6.7973
 21
-3.16963
  0
LINE
  8
0
 10
6.7973
 20
-3.16963
 11
6.85158
 21
-3.05052
  0
LINE
  8
0
 10
6.85158
 20
-3.05052
 11
6.90378
 21
-2.93048
  0
LINE
  8
0
 10
6.90378
 20
-2.93048
 11
6.95387
 21
-2.80954
  0
LINE
  8
0
 10
6.95387
 20
-2.80954
 11
7.00185
 21
-2.68776
  0
LINE
  8
0
 10
7.00185
 20
-2.68776
 11
7.04768
 21
-2.56514
  0
LINE
  8
0
 10
7.04768
 20
-2.56514
 11
7.09138
 21
-2.44176
  0
LINE
  8
0
 10
7.09138
 20
-2.44176
 11
7.13292
 21
-2.31763
  0
LINE
  8
0
 10
7.13292
 20
-2.31763
 11
7.17227
 21
-2.19278
  0
LINE
  8
0
 10
7.17227
 20
-2.19278
 11
7.20946
 21
-2.06728
  0
LINE
  8
0
 10
7.20946
 20
-2.06728
 11
7.24443
 21
-1.94113
  0
LINE
  8
0
 10
7.24443
 20
-1.94113
 11
7.27721
 21
-1.81441
  0
LINE
  8
0
 10
7.27721
 20
-1.81441
 11
7.30777
 21
-1.68712
  0
LINE
  8
0
 10
7.30777
 20
-1.68712
 11
7.33611
 21
-1.55933
  0
LINE
  8
0
 10
7.33611
 20
-1.55933
 11
7.3622
 21
-1.43106
  0
LINE
  8
0
 10
7.3622
 20
-1.43106
 11
7.38605
 21
-1.30235
  0
LINE
  8
0
 10
7.38605
 20
-1.30235
 11
7.40765
 21
-1.17325
  0
LINE
  8
0
 10
7.40765
 20
-1.17325
 11
7.427
 21
-1.04379
  0
LINE
  8
0
 10
7.427
 20
-1.04379
 11
7.44409
 21
-0.914017
  0
LINE
  8
0
 10
7.44409
 20
-0.914017
 11
7.45891
 21
-0.783951
  0
LINE
  8
0
 10
7.45891
 20
-0.783951
 11
7.47145
 21
-0.653656
  0
LINE
  8
0
 10
7.47145
 20
-0.653656
 11
7.48172
 21
-0.523163
  0
LINE
  8
0
 10
7.48172
 20
-0.523163
 11
7.48972
 21
-0.392517
  0
LINE
  8
0
 10
7.48972
 20
-0.392517
 11
7.49542
 21
-0.261734
  0
LINE
  8
0
 10
7.49542
 20
-0.261734
 11
7.49886
 21
-0.13089
  0
LINE
  8
0
 10
7.49886
 20
-0.13089
 11
7.5
 21
0
  0
LINE
  8
0
 10
7.5
 20
0
 11
7.49998
 21
0.000991821
  0
LINE
  8
0
 10
7.49998
 20
0.000991821
 11
37.5
 21
0.000991821
  0
LINE
  8
0
 10
37.5
 20
0.000991821
 11
37.4943
 21
0.654465
  0
LINE
  8
0
 10
37.4943
 20
0.654465
 11
37.4771
 21
1.30873
  0
LINE
  8
0
 10
37.4771
 20
1.30873
 11
37.4486
 21
1.96259
  0
LINE
  8
0
 10
37.4486
 20
1.96259
 11
37.4086
 21
2.61586
  0
LINE
  8
0
 10
37.4086
 20
2.61586
 11
37.3573
 21
3.26833
  0
LINE
  8
0
 10
37.3573
 20
3.26833
 11
37.2946
 21
3.91982
  0
LINE
  8
0
 10
37.2946
 20
3.91982
 11
37.2205
 21
4.5701
  0
LINE
  8
0
 10
37.2205
 20
4.5701
 11
37.135
 21
5.21898
  0
LINE
  8
0
 10
37.135
 20
5.21898
 11
37.0383
 21
5.86629
  0
LINE
  8
0
 10
37.0383
 20
5.86629
 11
36.9303
 21
6.5118
  0
LINE
  8
0
 10
36.9303
 20
6.5118
 11
36.811
 21
7.15533
  0
LINE
  8
0
 10
36.811
 20
7.15533
 11
36.6805
 21
7.79668
  0
LINE
  8
0
 10
36.6805
 20
7.79668
 11
36.5389
 21
8.43565
  0
LINE
  8
0
 10
36.5389
 20
8.43565
 11
36.3861
 21
9.07207
  0
LINE
  8
0
 10
36.3861
 20
9.07207
 11
36.2222
 21
9.7057
  0
LINE
  8
0
 10
36.2222
 20
9.7057
 11
36.0473
 21
10.3364
  0
LINE
  8
0
 10
36.0473
 20
10.3364
 11
35.8614
 21
10.9639
  0
LINE
  8
0
 10
35.8614
 20
10.9639
 11
35.6646
 21
11.5881
  0
LINE
  8
0
 10
35.6646
 20
11.5881
 11
35.4569
 21
12.2088
  0
LINE
  8
0
 10
35.4569
 20
12.2088
 11
35.2385
 21
12.8257
  0
LINE
  8
0
 10
35.2385
 20
12.8257
 11
35.0093
 21
13.4388
  0
LINE
  8
0
 10
35.0093
 20
13.4388
 11
34.7694
 21
14.0477
  0
LINE
  8
0
 10
34.7694
 20
14.0477
 11
34.5189
 21
14.6524
  0
LINE
  8
0
 10
34.5189
 20
14.6524
 11
34.2579
 21
15.2526
  0
LINE
  8
0
 10
34.2579
 20
15.2526
 11
33.9865
 21
15.8482
  0
LINE
  8
0
 10
33.9865
 20
15.8482
 11
33.7048
 21
16.4389
  0
LINE
  8
0
 10
33.7048
 20
16.4389
 11
33.4127
 21
17.0246
  0
LINE
  8
0
 10
33.4127
 20
17.0246
 11
33.1105
 21
17.6052
  0
LINE
  8
0
 10
33.1105
 20
17.6052
 11
32.7982
 21
18.1804
  0
LINE
  8
0
 10
32.7982
 20
18.1804
 11
32.476
 21
18.75
  0
LINE
  8
0
 10
32.476
 20
18.75
 11
32.1438
 21
19.3139
  0
LINE
  8
0
 10
32.1438
 20
19.3139
 11
31.8018
 21
19.872
  0
LINE
  8
0
 10
31.8018
 20
19.872
 11
31.4501
 21
20.424
  0
LINE
  8
0
 10
31.4501
 20
20.424
 11
31.0889
 21
20.9697
  0
LINE
  8
0
 10
31.0889
 20
20.9697
 11
30.7182
 21
21.5091
  0
LINE
  8
0
 10
30.7182
 20
21.5091
 11
30.3381
 21
22.0419
  0
LINE
  8
0
 10
30.3381
 20
22.0419
 11
29.9488
 21
22.5681
  0
LINE
  8
0
 10
29.9488
 20
22.5681
 11
29.5504
 21
23.0873
  0
LINE
  8
0
 10
29.5504
 20
23.0873
 11
29.143
 21
23.5995
  0
LINE
  8
0
 10
29.143
 20
23.5995
 11
28.7267
 21
24.1045
  0
LINE
  8
0
 10
28.7267
 20
24.1045
 11
28.3016
 21
24.6022
  0
LINE
  8
0
 10
28.3016
 20
24.6022
 11
27.8679
 21
25.0924
  0
LINE
  8
0
 10
27.8679
 20
25.0924
 11
27.4258
 21
25.5749
  0
LINE
  8
0
 10
27.4258
 20
25.5749
 11
26.9752
 21
26.0497
  0
LINE
  8
0
 10
26.9752
 20
26.0497
 11
26.5165
 21
26.5165
  0
LINE
  8
0
 10
26.5165
 20
26.5165
 11
26.0497
 21
26.9752
  0
LINE
  8
0
 10
26.0497
 20
26.9752
 11
25.5749
 21
27.4258
  0
LINE
  8
0
 10
25.5749
 20
27.4258
 11
25.0924
 21
27.8679
  0
LINE
  8
0
 10
25.0924
 20
27.8679
 11
24.6022
 21
28.3016
  0
LINE
  8
0
 10
24.6022
 20
28.3016
 11
24.1045
 21
28.7267
  0
LINE
  8
0
 10
24.1045
 20
28.7267
 11
23.5995
 21
29.143
  0
LINE
  8
0
 10
23.5995
 20
29.143
 11
23.0873
 21
29.5504
  0
LINE
  8
0
 10
23.0873
 20
29.5504
 11
22.5681
 21
29.9488
  0
LINE
  8
0
 10
22.5681
 20
29.9488
 11
22.0419
 21
30.3381
  0
LINE
  8
0
 10
22.0419
 20
30.3381
 11
21.5091
 21
30.7182
  0
LINE
  8
0
 10
21.5091
 20
30.7182
 11
20.9697
 21
31.0889
  0
LINE
  8
0
 10
20.9697
 20
31.0889
 11
20.424
 21
31.4501
  0
LINE
  8
0
 10
20.424
 20
31.4501
 11
19.872
 21
31.8018
  0
LINE
  8
0
 10
19.872
 20
31.8018
 11
19.3139
 21
32.1438
  0
LINE
  8
0
 10
19.3139
 20
32.1438
 11
18.75
 21
32.476
  0
LINE
  8
0
 10
18.75
 20
32.476
 11
18.1804
 21
32.7982
  0
LINE
  8
0
 10
18.1804
 20
32.7982
 11
17.6052
 21
33.1105
  0
LINE
  8
0
 10
17.6052
 20
33.1105
 11
17.0246
 21
33.4127
  0
LINE
  8
0
 10
17.0246
 20
33.4127
 11
16.4389
 21
33.7048
  0
LINE
  8
0
 10
16.4389
 20
33.7048
 11
15.8482
 21
33.9865
  0
LINE
  8
0
 10
15.8482
 20
33.9865
 11
15.2526
 21
34.2579
  0
LINE
  8
0
 10
15.2526
 20
34.2579
 11
14.6524
 21
34.5189
  0
LINE
  8
0
 10
14.6524
 20
34.5189
 11
14.0477
 21
34.7694
  0
LINE
  8
0
 10
14.0477
 20
34.7694
 11
13.4388
 21
35.0093
  0
LINE
  8
0
 10
13.4388
 20
35.0093
 11
12.8257
 21
35.2385
  0
LINE
  8
0
 10
12.8257
 20
35.2385
 11
12.2088
 21
35.4569
  0
LINE
  8
0
 10
12.2088
 20
35.4569
 11
11.5881
 21
35.6646
  0
LINE
  8
0
 10
11.5881
 20
35.6646
 11
10.9639
 21
35.8614
  0
LINE
  8
0
 10
10.9639
 20
35.8614
 11
10.3364
 21
36.0473
  0
LINE
  8
0
 10
10.3364
 20
36.0473
 11
9.7057
 21
36.2222
  0
LINE
  8
0
 10
9.7057
 20
36.2222
 11
9.07207
 21
36.3861
  0
LINE
  8
0
 10
9.07207
 20
36.3861
 11
8.43565
 21
36.5389
  0
LINE
  8
0
 10
8.43565
 20
36.5389
 11
7.79668
 21
36.6805
  0
LINE
  8
0
 10
7.79668
 20
36.6805
 11
7.15533
 21
36.811
  0
LINE
  8
0
 10
7.15533
 20
36.811
 11
6.5118
 21
36.9303
  0
LINE
  8
0
 10
6.5118
 20
36.9303
 11
5.86629
 21
37.0383
  0
LINE
  8
0
 10
5.86629
 20
37.0383
 11
5.21898
 21
37.135
  0
LINE
  8
0
 10
5.21898
 20
37.135
 11
4.5701
 21
37.2205
  0
LINE
  8
0
 10
4.5701
 20
37.2205
 11
3.91982
 21
37.2946
  0
LINE
  8
0
 10
3.91982
 20
37.2946
 11
3.26833
 21
37.3573
  0
LINE
  8
0
 10
3.26833
 20
37.3573
 11
2.61586
 21
37.4086
  0
LINE
  8
0
 10
2.61586
 20
37.4086
 11
1.96259
 21
37.4486
  0
LINE
  8
0
 10
1.96259
 20
37.4486
 11
1.30873
 21
37.4771
  0
LINE
  8
0
 10
1.30873
 20
37.4771
 11
0.654465
 21
37.4943
  0
LINE
  8
0
 10
0.654465
 20
37.4943
 11
0.000991821
 21
37.5
  0
LINE
  8
0
 10
0.000991821
 20
37.5
 11
0.000991821
 21
7.49998
  0
LINE
  8
0
 10
0.000991821
 20
7.49998
 11
0
 21
7.5
  0
LINE
  8
0
 10
0
 20
7.5
 11
-0.13089
 21
7.49886
  0
LINE
  8
0
 10
-0.13089
 20
7.49886
 11
-0.261734
 21
7.49542
  0
LINE
  8
0
 10
-0.261734
 20
7.49542
 11
-0.392517
 21
7.48972
  0
LINE
  8
0
 10
-0.392517
 20
7.48972
 11
-0.523163
 21
7.48172
  0
LINE
  8
0
 10
-0.523163
 20
7.48172
 11
-0.653656
 21
7.47145
  0
LINE
  8
0
 10
-0.653656
 20
7.47145
 11
-0.783951
 21
7.45891
  0
LINE
  8
0
 10
-0.783951
 20
7.45891
 11
-0.914017
 21
7.44409
  0
LINE
  8
0
 10
-0.914017
 20
7.44409
 11
-1.04379
 21
7.427
  0
LINE
  8
0
 10
-1.04379
 20
7.427
 11
-1.17325
 21
7.40765
  0
LINE
  8
0
 10
-1.17325
 20
7.40765
 11
-1.30235
 21
7.38605
  0
LINE
  8
0
 10
-1.30235
 20
7.38605
 11
-1.43106
 21
7.3622
  0
LINE
  8
0
 10
-1.43106
 20
7.3622
 11
-1.55933
 21
7.33611
  0
LINE
  8
0
 10
-1.55933
 20
7.33611
 11
-1.68712
 21
7.30777
  0
LINE
  8
0
 10
-1.68712
 20
7.30777
 11
-1.81441
 21
7.27721
  0
LINE
  8
0
 10
-1.81441
 20
7.27721
 11
-1.94113
 21
7.24443
  0
LINE
  8
0
 10
-1.94113
 20
7.24443
 11
-2.06728
 21
7.20946
  0
LINE
  8
0
 10
-2.06728
 20
7.20946
 11
-2.19278
 21
7.17227
  0
LINE
  8
0
 10
-2.19278
 20
7.17227
 11
-2.31763
 21
7.13292
  0
LINE
  8
0
 10
-2.31763
 20
7.13292
 11
-2.44176
 21
7.09138
  0
LINE
  8
0
 10
-2.44176
 20
7.09138
 11
-2.56514
 21
7.04768
  0
LINE
  8
0
 10
-2.56514
 20
7.04768
 11
-2.68776
 21
7.00185
  0
LINE
  8
0
 10
-2.68776
 20
7.00185
 11
-2.80954
 21
6.95387
  0
LINE
  8
0
 10
-2.80954
 20
6.95387
 11
-2.93048
 21
6.90378
  0
LINE
  8
0
 10
-2.93048
 20
6.90378
 11
-3.05052
 21
6.85158
  0
LINE
  8
0
 10
-3.05052
 20
6.85158
 11
-3.16963
 21
6.7973
  0
LINE
  8
0
 10
-3.16963
 20
6.7973
 11
-3.28778
 21
6.74095
  0
LINE
  8
0
 10
-3.28778
 20
6.74095
 11
-3.40492
 21
6.68254
  0
LINE
  8
0
 10
-3.40492
 20
6.68254
 11
-3.52103
 21
6.6221
  0
LINE
  8
0
 10
-3.52103
 20
6.6221
 11
-3.63606
 21
6.55965
  0
LINE
  8
0
 10
-3.63606
 20
6.55965
 11
-3.75
 21
6.49518
  0
LINE
  8
0
 10
-3.75
 20
6.49518
 11
-3.86278
 21
6.42874
  0
LINE
  8
0
 10
-3.86278
 20
6.42874
 11
-3.97438
 21
6.36035
  0
LINE
  8
0
 10
-3.97438
 20
6.36035
 11
-4.08478
 21
6.29002
  0
LINE
  8
0
 10
-4.08478
 20
6.29002
 11
-4.19394
 21
6.21777
  0
LINE
  8
0
 10
-4.19394
 20
6.21777
 11
-4.30182
 21
6.14363
  0
LINE
  8
0
 10
-4.30182
 20
6.14363
 11
-4.40839
 21
6.06763
  0
LINE
  8
0
 10
-4.40839
 20
6.06763
 11
-4.51361
 21
5.98976
  0
LINE
  8
0
 10
-4.51361
 20
5.98976
 11
-4.61745
 21
5.91008
  0
LINE
  8
0
 10
-4.61745
 20
5.91008
 11
-4.71989
 21
5.82858
  0
LINE
  8
0
 10
-4.71989
 20
5.82858
 11
-4.82089
 21
5.74533
  0
LINE
  8
0
 10
-4.82089
 20
5.74533
 11
-4.92044
 21
5.66031
  0
LINE
  8
0
 10
-4.92044
 20
5.66031
 11
-5.01848
 21
5.57358
  0
LINE
  8
0
 10
-5.01848
 20
5.57358
 11
-5.11497
 21
5.48514
  0
LINE
  8
0
 10
-5.11497
 20
5.48514
 11
-5.20993
 21
5.39503
  0
LINE
  8
0
 10
-5.20993
 20
5.39503
 11
-5.3033
 21
5.3033
  0
LINE
  8
0
 10
-5.3033
 20
5.3033
 11
-5.39503
 21
5.20993
  0
LINE
  8
0
 10
-5.39503
 20
5.20993
 11
-5.48514
 21
5.11497
  0
LINE
  8
0
 10
-5.48514
 20
5.11497
 11
-5.57358
 21
5.01848
  0
LINE
  8
0
 10
-5.57358
 20
5.01848
 11
-5.66031
 21
4.92044
  0
LINE
  8
0
 10
-5.66031
 20
4.92044
 11
-5.74533
 21
4.82089
  0
LINE
  8
0
 10
-5.74533
 20
4.82089
 11
-5.82858
 21
4.71989
  0
LINE
  8
0
 10
-5.82858
 20
4.71989
 11
-5.91008
 21
4.61745
  0
LINE
  8
0
 10
-5.91008
 20
4.61745
 11
-5.98976
 21
4.51361
  0
LINE
  8
0
 10
-5.98976
 20
4.51361
 11
-6.06763
 21
4.40839
  0
LINE
  8
0
 10
-6.06763
 20
4.40839
 11
-6.14363
 21
4.30182
  0
LINE
  8
0
 10
-6.14363
 20
4.30182
 11
-6.21777
 21
4.19394
  0
LINE
  8
0
 10
-6.21777
 20
4.19394
 11
-6.29002
 21
4.08478
  0
LINE
  8
0
 10
-6.29002
 20
4.08478
 11
-6.36035
 21
3.97438
  0
LINE
  8
0
 10
-6.36035
 20
3.97438
 11
-6.42874
 21
3.86278
  0
LINE
  8
0
 10
-6.42874
 20
3.86278
 11
-6.49518
 21
3.75
  0
LINE
  8
0
 10
-6.49518
 20
3.75
 11
-6.55965
 21
3.63606
  0
LINE
  8
0
 10
-6.55965
 20
3.63606
 11
-6.6221
 21
3.52103
  0
LINE
  8
0
 10
-6.6221
 20
3.52103
 11
-6.68254
 21
3.40492
  0
LINE
  8
0
 10
-6.68254
 20
3.40492
 11
-6.74095
 21
3.28778
  0
LINE
  8
0
 10
-6.74095
 20
3.28778
 11
-6.7973
 21
3.16963
  0
LINE
  8
0
 10
-6.7973
 20
3.16963
 11
-6.85158
 21
3.05052
  0
LINE
  8
0
 10
-6.85158
 20
3.05052
 11
-6.90378
 21
2.93048
  0
LINE
  8
0
 10
-6.90378
 20
2.93048
 11
-6.95387
 21
2.80954
  0
LINE
  8
0
 10
-6.95387
 20
2.80954
 11
-7.00185
 21
2.68776
  0
LINE
  8
0
 10
-7.00185
 20
2.68776
 11
-7.04768
 21
2.56514
  0
LINE
  8
0
 10
-7.04768
 20
2.56514
 11
-7.09138
 21
2.44176
  0
LINE
  8
0
 10
-7.09138
 20
2.44176
 11
-7.13292
 21
2.31763
  0
LINE
  8
0
 10
-7.13292
 20
2.31763
 11
-7.17227
 21
2.19278
  0
LINE
  8
0
 10
-7.17227
 20
2.19278
 11
-7.20946
 21
2.06728
  0
LINE
  8
0
 10
-7.20946
 20
2.06728
 11
-7.24443
 21
1.94113
  0
LINE
  8
0
 10
-7.24443
 20
1.94113
 11
-7.27721
 21
1.81441
  0
LINE
  8
0
 10
-7.27721
 20
1.81441
 11
-7.30777
 21
1.68712
  0
LINE
  8
0
 10
-7.30777
 20
1.68712
 11
-7.33611
 21
1.55933
  0
LINE
  8
0
 10
-7.33611
 20
1.55933
 11
-7.3622
 21
1.43106
  0
LINE
  8
0
 10
-7.3622
 20
1.43106
 11
-7.38605
 21
1.30235
  0
LINE
  8
0
 10
-7.38605
 20
1.30235
 11
-7.40765
 21
1.17325
  0
LINE
  8
0
 10
-7.40765
 20
1.17325
 11
-7.427
 21
1.04379
  0
LINE
  8
0
 10
-7.427
 20
1.04379
 11
-7.44409
 21
0.914017
  0
LINE
  8
0
 10
-7.44409
 20
0.914017
 11
-7.45891
 21
0.783951
  0
LINE
  8
0
 10
-7.45891
 20
0.783951
 11
-7.47145
 21
0.653656
  0
LINE
  8
0
 10
-7.47145
 20
0.653656
 11
-7.48172
 21
0.523163
  0
LINE
  8
0
 10
-7.48172
 20
0.523163
 11
-7.48972
 21
0.392517
  0
LINE
  8
0
 10
-7.48972
 20
0.392517
 11
-7.49542
 21
0.261734
  0
LINE
  8
0
 10
-7.49542
 20
0.261734
 11
-7.49886
 21
0.13089
  0
LINE
  8
0
 10
-7.49886
 20
0.13089
 11
-7.5
 21
0
  0
LINE
  8
0
 10
-7.5
 20
0
 11
-7.49998
 21
-0.000991821
  0
LINE
  8
0
 10
-7.49998
 20
-0.000991821
 11
-37.5
 21
-0.000991821
  0
LINE
  8
0
 10
-37.5
 20
-0.000991821
 11
-37.4943
 21
-0.654465
  0
LINE
  8
0
 10
-37.4943
 20
-0.654465
 11
-37.4771
 21
-1.30873
  0
LINE
  8
0
 10
-37.4771
 20
-1.30873
 11
-37.4486
 21
-1.96259
  0
LINE
  8
0
 10
-37.4486
 20
-1.96259
 11
-37.4086
 21
-2.61586
  0
LINE
  8
0
 10
-37.4086
 20
-2.61586
 11
-37.3573
 21
-3.26833
  0
LINE
  8
0
 10
-37.3573
 20
-3.26833
 11
-37.2946
 21
-3.91982
  0
LINE
  8
0
 10
-37.2946
 20
-3.91982
 11
-37.2205
 21
-4.5701
  0
LINE
  8
0
 10
-37.2205
 20
-4.5701
 11
-37.135
 21
-5.21898
  0
LINE
  8
0
 10
-37.135
 20
-5.21898
 11
-37.0383
 21
-5.86629
  0
LINE
  8
0
 10
-37.0383
 20
-5.86629
 11
-36.9303
 21
-6.5118
  0
LINE
  8
0
 10
-36.9303
 20
-6.5118
 11
-36.811
 21
-7.15533
  0
LINE
  8
0
 10
-36.811
 20
-7.15533
 11
-36.6805
 21
-7.79668
  0
LINE
  8
0
 10
-36.6805
 20
-7.79668
 11
-36.5389
 21
-8.43565
  0
LINE
  8
0
 10
-36.5389
 20
-8.43565
 11
-36.3861
 21
-9.07207
  0
LINE
  8
0
 10
-36.3861
 20
-9.07207
 11
-36.2222
 21
-9.7057
  0
LINE
  8
0
 10
-36.2222
 20
-9.7057
 11
-36.0473
 21
-10.3364
  0
LINE
  8
0
 10
-36.0473
 20
-10.3364
 11
-35.8614
 21
-10.9639
  0
LINE
  8
0
 10
-35.8614
 20
-10.9639
 11
-35.6646
 21
-11.5881
  0
LINE
  8
0
 10
-35.6646
 20
-11.5881
 11
-35.4569
 21
-12.2088
  0
LINE
  8
0
 10
-35.4569
 20
-12.2088
 11
-35.2385
 21
-12.8257
  0
LINE
  8
0
 10
-35.2385
 20
-12.8257
 11
-35.0093
 21
-13.4388
  0
LINE
  8
0
 10
-35.0093
 20
-13.4388
 11
-34.7694
 21
-14.0477
  0
LINE
  8
0
 10
-34.7694
 20
-14.0477
 11
-34.5189
 21
-14.6524
  0
LINE
  8
0
 10
-34.5189
 20
-14.6524
 11
-34.2579
 21
-15.2526
  0
LINE
  8
0
 10
-34.2579
 20
-15.2526
 11
-33.9865
 21
-15.8482
  0
LINE
  8
0
 10
-33.9865
 20
-15.8482
 11
-33.7048
 21
-16.4389
  0
LINE
  8
0
 10
-33.7048
 20
-16.4389
 11
-33.4127
 21
-17.0246
  0
LINE
  8
0
 10
-33.4127
 20
-17.0246
 11
-33.1105
 21
-17.6052
  0
LINE
  8
0
 10
-33.1105
 20
-17.6052
 11
-32.7982
 21
-18.1804
  0
LINE
  8
0
 10
-32.7982
 20
-18.1804
 11
-32.476
 21
-18.75
  0
LINE
  8
0
 10
-32.476
 20
-18.75
 11
-32.1438
 21
-19.3139
  0
LINE
  8
0
 10
-32.1438
 20
-19.3139
 11
-31.8018
 21
-19.872
  0
LINE
  8
0
 10
-31.8018
 20
-19.872
 11
-31.4501
 21
-20.424
  0
LINE
  8
0
 10
-31.4501
 20
-20.424
 11
-31.0889
 21
-20.9697
  0
LINE
  8
0
 10
-31.0889
 20
-20.9697
 11
-30.7182
 21
-21.5091
  0
LINE
  8
0
 10
-30.7182
 20
-21.5091
 11
-30.3381
 21
-22.0419
  0
LINE
  8
0
 10
-30.3381
 20
-22.0419
 11
-29.9488
 21
-22.5681
  0
LINE
  8
0
 10
-29.9488
 20
-22.5681
 11
-29.5504
 21
-23.0873
  0
LINE
  8
0
 10
-29.5504
 20
-23.0873
 11
-29.143
 21
-23.5995
  0
LINE
  8
0
 10
-29.143
 20
-23.5995
 11
-28.7267
 21
-24.1045
  0
LINE
  8
0
 10
-28.7267
 20
-24.1045
 11
-28.3016
 21
-24.6022
  0
LINE
  8
0
 10
-28.3016
 20
-24.6022
 11
-27.8679
 21
-25.0924
  0
LINE
  8
0
 10
-27.8679
 20
-25.0924
 11
-27.4258
 21
-25.5749
  0
LINE
  8
0
 10
-27.4258
 20
-25.5749
 11
-26.9752
 21
-26.0497
  0
LINE
  8
0
 10
-26.9752
 20
-26.0497
 11
-26.5165
 21
-26.5165
  0
LINE
  8
0
 10
-26.5165
 20
-26.5165
 11
-26.0497
 21
-26.9752
  0
LINE
  8
0
 10
-26.0497
 20
-26.9752
 11
-25.5749
 21
-27.4258
  0
LINE
  8
0
 10
-25.5749
 20
-27.4258
 11
-25.0924
 21
-27.8679
  0
LINE
  8
0
 10
-25.0924
 20
-27.8679
 11
-24.6022
 21
-28.3016
  0
LINE
  8
0
 10
-24.6022
 20
-28.3016
 11
-24.1045
 21
-28.7267
  0
LINE
  8
0
 10
-24.1045
 20
-28.7267
 11
-23.5995
 21
-29.143
  0
LINE
  8
0
 10
-23.5995
 20
-29.143
 11
-23.0873
 21
-29.5504
  0
LINE
  8
0
 10
-23.0873
 20
-29.5504
 11
-22.5681
 21
-29.9488
  0
LINE
  8
0
 10
-22.5681
 20
-29.9488
 11
-22.0419
 21
-30.3381
  0
LINE
  8
0
 10
-22.0419
 20
-30.3381
 11
-21.5091
 21
-30.7182
  0
LINE
  8
0
 10
-21.5091
 20
-30.7182
 11
-20.9697
 21
-31.0889
  0
LINE
  8
0
 10
-20.9697
 20
-31.0889
 11
-20.424
 21
-31.4501
  0
LINE
  8
0
 10
-20.424
 20
-31.4501
 11
-19.872
 21
-31.8018
  0
LINE
  8
0
 10
-19.872
 20
-31.8018
 11
-19.3139
 21
-32.1438
  0
LINE
  8
0
 10
-19.3139
 20
-32.1438
 11
-18.75
 21
-32.476
  0
LINE
  8
0
 10
-18.75
 20
-32.476
 11
-18.1804
 21
-32.7982
  0
LINE
  8
0
 10
-18.1804
 20
-32.7982
 11
-17.6052
 21
-33.1105
  0
LINE
  8
0
 10
-17.6052
 20
-33.1105
 11
-17.0246
 21
-33.4127
  0
LINE
  8
0
 10
-17.0246
 20
-33.4127
 11
-16.4389
 21
-33.7048
  0
LINE
  8
0
 10
-16.4389
 20
-33.7048
 11
-15.8482
 21
-33.9865
  0
LINE
  8
0
 10
-15.8482
 20
-33.9865
 11
-15.2526
 21
-34.2579
  0
LINE
  8
0
 10
-15.2526
 20
-34.2579
 11
-14.6524
 21
-34.5189
  0
LINE
  8
0
 10
-14.6524
 20
-34.5189
 11
-14.0477
 21
-34.7694
  0
LINE
  8
0
 10
-14.0477
 20
-34.7694
 11
-13.4388
 21
-35.0093
  0
LINE
  8
0
 10
-13.4388
 20
-35.0093
 11
-12.8257
 21
-35.2385
  0
LINE
  8
0
 10
-12.8257
 20
-35.2385
 11
-12.2088
 21
-35.4569
  0
LINE
  8
0
 10
-12.2088
 20
-35.4569
 11
-11.5881
 21
-35.6646
  0
LINE
  8
0
 10
-11.5881
 20
-35.6646
 11
-10.9639
 21
-35.8614
  0
LINE
  8
0
 10
-10.9639
 20
-35.8614
 11
-10.3364
 21
-36.0473
  0
LINE
  8
0
 10
-10.3364
 20
-36.0473
 11
-9.7057
 21
-36.2222
  0
LINE
  8
0
 10
-9.7057
 20
-36.2222
 11
-9.07207
 21
-36.3861
  0
LINE
  8
0
 10
-9.07207
 20
-36.3861
 11
-8.43565
 21
-36.5389
  0
LINE
  8
0
 10
-8.43565
 20
-36.5389
 11
-7.79668
 21
-36.6805
  0
LINE
  8
0
 10
-7.79668
 20
-36.6805
 11
-7.15533
 21
-36.811
  0
LINE
  8
0
 10
-7.15533
 20
-36.811
 11
-6.5118
 21
-36.9303
  0
LINE
  8
0
 10
-6.5118
 20
-36.9303
 11
-5.86629
 21
-37.0383
  0
LINE
  8
0
 10
-5.86629
 20
-37.0383
 11
-5.21898
 21
-37.135
  0
LINE
  8
0
 10
-5.21898
 20
-37.135
 11
-4.5701
 21
-37.2205
  0
LINE
  8
0
 10
-4.5701
 20
-37.2205
 11
-3.91982
 21
-37.2946
  0
LINE
  8
0
 10
-3.91982
 20
-37.2946
 11
-3.26833
 21
-37.3573
  0
LINE
  8
0
 10
-3.26833
 20
-37.3573
 11
-2.61586
 21
-37.4086
  0
LINE
  8
0
 10
-2.61586
 20
-37.4086
 11
-1.96259
 21
-37.4486
  0
LINE
  8
0
 10
-1.96259
 20
-37.4486
 11
-1.30873
 21
-37.4771
  0
LINE
  8
0
 10
-1.30873
 20
-37.4771
 11
-0.654465
 21
-37.4943
  0
LINE
  8
0
 10
-0.654465
 20
-37.4943
 11
-0.000991821
 21
-37.5
  0
LINE
  8
0
 10
-0.000991821
 20
-37.5
 11
-0.000991821
 21
-7.49998
  0
LINE
  8
0
 10
-0.0999146
 20
-2.09761
 11
-0.199615
 21
-2.09048
  0
LINE
  8
0
 10
-0.199615
 20
-2.09048
 11
-0.298859
 21
-2.07861
  0
LINE
  8
0
 10
-0.298859
 20
-2.07861
 11
-0.397415
 21
-2.06204
  0
LINE
  8
0
 10
-0.397415
 20
-2.06204
 11
-0.495087
 21
-2.0408
  0
LINE
  8
0
 10
-0.495087
 20
-2.0408
 11
-0.591629
 21
-2.01492
  0
LINE
  8
0
 10
-0.591629
 20
-2.01492
 11
-0.686829
 21
-1.9845
  0
LINE
  8
0
 10
-0.686829
 20
-1.9845
 11
-0.780487
 21
-1.94957
  0
LINE
  8
0
 10
-0.780487
 20
-1.94957
 11
-0.87236
 21
-1.91022
  0
LINE
  8
0
 10
-0.87236
 20
-1.91022
 11
-0.962265
 21
-1.86655
  0
LINE
  8
0
 10
-0.962265
 20
-1.86655
 11
-1.04999
 21
-1.81865
  0
LINE
  8
0
 10
-1.04999
 20
-1.81865
 11
-1.13535
 21
-1.76663
  0
LINE
  8
0
 10
-1.13535
 20
-1.76663
 11
-1.21811
 21
-1.7106
  0
LINE
  8
0
 10
-1.21811
 20
-1.7106
 11
-1.29813
 21
-1.65071
  0
LINE
  8
0
 10
-1.29813
 20
-1.65071
 11
-1.3752
 21
-1.58707
  0
LINE
  8
0
 10
-1.3752
 20
-1.58707
 11
-1.44916
 21
-1.51984
  0
LINE
  8
0
 10
-1.44916
 20
-1.51984
 11
-1.51984
 21
-1.44916
  0
LINE
  8
0
 10
-1.51984
 20
-1.44916
 11
-1.58707
 21
-1.3752
  0
LINE
  8
0
 10
-1.58707
 20
-1.3752
 11
-1.65071
 21
-1.29813
  0
LINE
  8
0
 10
-1.65071
 20
-1.29813
 11
-1.7106
 21
-1.21811
  0
LINE
  8
0
 10
-1.7106
 20
-1.21811
 11
-1.76663
 21
-1.13535
  0
LINE
  8
0
 10
-1.76663
 20
-1.13535
 11
-1.81865
 21
-1.04999
  0
LINE
  8
0
 10
-1.81865
 20
-1.04999
 11
-1.86655
 21
-0.962265
  0
LINE
  8
0
 10
-1.86655
 20
-0.962265
 11
-1.91022
 21
-0.87236
  0
LINE
  8
0
 10
-1.91022
 20
-0.87236
 11
-1.94957
 21
-0.780487
  0
LINE
  8
0
 10
-1.94957
 20
-0.780487
 11
-1.9845
 21
-0.686829
  0
LINE
  8
0
 10
-1.9845
 20
-0.686829
 11
-2.01492
 21
-0.591629
  0
LINE
  8
0
 10
-2.01492
 20
-0.591629
 11
-2.0408
 21
-0.495087
  0
LINE
  8
0
 10
-2.0408
 20
-0.495087
 11
-2.06204
 21
-0.397415
  0
LINE
  8
0
 10
-2.06204
 20
-0.397415
 11
-2.07861
 21
-0.298859
  0
LINE
  8
0
 10
-2.07861
 20
-0.298859
 11
-2.09048
 21
-0.199615
  0
LINE
  8
0
 10
-2.09048
 20
-0.199615
 11
-2.09761
 21
-0.0999146
  0
LINE
  8
0
 10
-2.09761
 20
-0.0999146
 11
-2.09999
 21
0
  0
LINE
  8
0
 10
-2.09999
 20
0
 11
-2.09761
 21
0.0999146
  0
LINE
  8
0
 10
-2.09761
 20
0.0999146
 11
-2.09048
 21
0.199615
  0
LINE
  8
0
 10
-2.09048
 20
0.199615
 11
-2.07861
 21
0.298859
  0
LINE
  8
0
 10
-2.07861
 20
0.298859
 11
-2.06204
 21
0.397415
  0
LINE
  8
0
 10
-2.06204
 20
0.397415
 11
-2.0408
 21
0.495087
  0
LINE
  8
0
 10
-2.0408
 20
0.495087
 11
-2.01492
 21
0.591629
  0
LINE
  8
0
 10
-2.01492
 20
0.591629
 11
-1.9845
 21
0.686829
  0
LINE
  8
0
 10
-1.9845
 20
0.686829
 11
-1.94957
 21
0.780487
  0
LINE
  8
0
 10
-1.94957
 20
0.780487
 11
-1.91022
 21
0.87236
  0
LINE
  8
0
 10
-1.91022
 20
0.87236
 11
-1.86655
 21
0.962265
  0
LINE
  8
0
 10
-1.86655
 20
0.962265
 11
-1.81865
 21
1.04999
  0
LINE
  8
0
 10
-1.81865
 20
1.04999
 11
-1.76663
 21
1.13535
  0
LINE
  8
0
 10
-1.76663
 20
1.13535
 11
-1.7106
 21
1.21811
  0
LINE
  8
0
 10
-1.7106
 20
1.21811
 11
-1.65071
 21
1.29813
  0
LINE
  8
0
 10
-1.65071
 20
1.29813
 11
-1.58707
 21
1.3752
  0
LINE
  8
0
 10
-1.58707
 20
1.3752
 11
-1.51984
 21
1.44916
  0
LINE
  8
0
 10
-1.51984
 20
1.44916
 11
-1.44916
 21
1.51984
  0
LINE
  8
0
 10
-1.44916
 20
1.51984
 11
-1.3752
 21
1.58707
  0
LINE
  8
0
 10
-1.3752
 20
1.58707
 11
-1.29813
 21
1.65071
  0
LINE
  8
0
 10
-1.29813
 20
1.65071
 11
-1.21811
 21
1.7106
  0
LINE
  8
0
 10
-1.21811
 20
1.7106
 11
-1.13535
 21
1.76663
  0
LINE
  8
0
 10
-1.13535
 20
1.76663
 11
-1.04999
 21
1.81865
  0
LINE
  8
0
 10
-1.04999
 20
1.81865
 11
-0.962265
 21
1.86655
  0
LINE
  8
0
 10
-0.962265
 20
1.86655
 11
-0.87236
 21
1.91022
  0
LINE
  8
0
 10
-0.87236
 20
1.91022
 11
-0.780487
 21
1.94957
  0
LINE
  8
0
 10
-0.780487
 20
1.94957
 11
-0.686829
 21
1.9845
  0
LINE
  8
0
 10
-0.686829
 20
1.9845
 11
-0.591629
 21
2.01492
  0
LINE
  8
0
 10
-0.591629
 20
2.01492
 11
-0.495087
 21
2.0408
  0
LINE
  8
0
 10
-0.495087
 20
2.0408
 11
-0.397415
 21
2.06204
  0
LINE
  8
0
 10
-0.397415
 20
2.06204
 11
-0.298859
 21
2.07861
  0
LINE
  8
0
 10
-0.298859
 20
2.07861
 11
-0.199615
 21
2.09048
  0
LINE
  8
0
 10
-0.199615
 20
2.09048
 11
-0.0999146
 21
2.09761
  0
LINE
  8
0
 10
-0.0999146
 20
2.09761
 11
0
 21
2.09999
  0
LINE
  8
0
 10
0
 20
2.09999
 11
0.0999146
 21
2.09761
  0
LINE
  8
0
 10
0.0999146
 20
2.09761
 11
0.199615
 21
2.09048
  0
LINE
  8
0
 10
0.199615
 20
2.09048
 11
0.298859
 21
2.07861
  0
LINE
  8
0
 10
0.298859
 20
2.07861
 11
0.397415
 21
2.06204
  0
LINE
  8
0
 10
0.397415
 20
2.06204
 11
0.495087
 21
2.0408
  0
LINE
  8
0
 10
0.495087
 20
2.0408
 11
0.591629
 21
2.01492
  0
LINE
  8
0
 10
0.591629
 20
2.01492
 11
0.686829
 21
1.9845
  0
LINE
  8
0
 10
0.686829
 20
1.9845
 11
0.780487
 21
1.94957
  0
LINE
  8
0
 10
0.780487
 20
1.94957
 11
0.87236
 21
1.91022
  0
LINE
  8
0
 10
0.87236
 20
1.91022
 11
0.962265
 21
1.86655
  0
LINE
  8
0
 10
0.962265
 20
1.86655
 11
1.04999
 21
1.81865
  0
LINE
  8
0
 10
1.04999
 20
1.81865
 11
1.13535
 21
1.76663
  0
LINE
  8
0
 10
1.13535
 20
1.76663
 11
1.21811
 21
1.7106
  0
LINE
  8
0
 10
1.21811
 20
1.7106
 11
1.29813
 21
1.65071
  0
LINE
  8
0
 10
1.29813
 20
1.65071
 11
1.3752
 21
1.58707
  0
LINE
  8
0
 10
1.3752
 20
1.58707
 11
1.44916
 21
1.51984
  0
LINE
  8
0
 10
1.44916
 20
1.51984
 11
1.51984
 21
1.44916
  0
LINE
  8
0
 10
1.51984
 20
1.44916
 11
1.58707
 21
1.3752
  0
LINE
  8
0
 10
1.58707
 20
1.3752
 11
1.65071
 21
1.29813
  0
LINE
  8
0
 10
1.65071
 20
1.29813
 11
1.7106
 21
1.21811
  0
LINE
  8
0
 10
1.7106
 20
1.21811
 11
1.76663
 21
1.13535
  0
LINE
  8
0
 10
1.76663
 20
1.13535
 11
1.81865
 21
1.04999
  0
LINE
  8
0
 10
1.81865
 20
1.04999
 11
1.86655
 21
0.962265
  0
LINE
  8
0
 10
1.86655
 20
0.962265
 11
1.91022
 21
0.87236
  0
LINE
  8
0
 10
1.91022
 20
0.87236
 11
1.94957
 21
0.780487
  0
LINE
  8
0
 10
1.94957
 20
0.780487
 11
1.9845
 21
0.686829
  0
LINE
  8
0
 10
1.9845
 20
0.686829
 11
2.01492
 21
0.591629
  0
LINE
  8
0
 10
2.01492
 20
0.591629
 11
2.0408
 21
0.495087
  0
LINE
  8
0
 10
2.0408
 20
0.495087
 11
2.06204
 21
0.397415
  0
LINE
  8
0
 10
2.06204
 20
0.397415
 11
2.07861
 21
0.298859
  0
LINE
  8
0
 10
2.07861
 20
0.298859
 11
2.09048
 21
0.199615
  0
LINE
  8
0
 10
2.09048
 20
0.199615
 11
2.09761
 21
0.0999146
  0
LINE
  8
0
 10
2.09761
 20
0.0999146
 11
2.09999
 21
0
  0
LINE
  8
0
 10
2.09999
 20
0
 11
2.09761
 21
-0.0999146
  0
LINE
  8
0
 10
2.09761
 20
-0.0999146
 11
2.09048
 21
-0.199615
  0
LINE
  8
0
 10
2.09048
 20
-0.199615
 11
2.07861
 21
-0.298859
  0
LINE
  8
0
 10
2.07861
 20
-0.298859
 11
2.06204
 21
-0.397415
  0
LINE
  8
0
 10
2.06204
 20
-0.397415
 11
2.0408
 21
-0.495087
  0
LINE
  8
0
 10
2.0408
 20
-0.495087
 11
2.01492
 21
-0.591629
  0
LINE
  8
0
 10
2.01492
 20
-0.591629
 11
1.9845
 21
-0.686829
  0
LINE
  8
0
 10
1.9845
 20
-0.686829
 11
1.94957
 21
-0.780487
  0
LINE
  8
0
 10
1.94957
 20
-0.780487
 11
1.91022
 21
-0.87236
  0
LINE
  8
0
 10
1.91022
 20
-0.87236
 11
1.86655
 21
-0.962265
  0
LINE
  8
0
 10
1.86655
 20
-0.962265
 11
1.81865
 21
-1.04999
  0
LINE
  8
0
 10
1.81865
 20
-1.04999
 11
1.76663
 21
-1.13535
  0
LINE
  8
0
 10
1.76663
 20
-1.13535
 11
1.7106
 21
-1.21811
  0
LINE
  8
0
 10
1.7106
 20
-1.21811
 11
1.65071
 21
-1.29813
  0
LINE
  8
0
 10
1.65071
 20
-1.29813
 11
1.58707
 21
-1.3752
  0
LINE
  8
0
 10
1.58707
 20
-1.3752
 11
1.51984
 21
-1.44916
  0
LINE
  8
0
 10
1.51984
 20
-1.44916
 11
1.44916
 21
-1.51984
  0
LINE
  8
0
 10
1.44916
 20
-1.51984
 11
1.3752
 21
-1.58707
  0
LINE
  8
0
 10
1.3752
 20
-1.58707
 11
1.29813
 21
-1.65071
  0
LINE
  8
0
 10
1.29813
 20
-1.65071
 11
1.21811
 21
-1.7106
  0
LINE
  8
0
 10
1.21811
 20
-1.7106
 11
1.13535
 21
-1.76663
  0
LINE
  8
0
 10
1.13535
 20
-1.76663
 11
1.04999
 21
-1.81865
  0
LINE
  8
0
 10
1.04999
 20
-1.81865
 11
0.962265
 21
-1.86655
  0
LINE
  8
0
 10
0.962265
 20
-1.86655
 11
0.87236
 21
-1.91022
  0
LINE
  8
0
 10
0.87236
 20
-1.91022
 11
0.780487
 21
-1.94957
  0
LINE
  8
0
 10
0.780487
 20
-1.94957
 11
0.686829
 21
-1.9845
  0
LINE
  8
0
 10
0.686829
 20
-1.9845
 11
0.591629
 21
-2.01492
  0
LINE
  8
0
 10
0.591629
 20
-2.01492
 11
0.495087
 21
-2.0408
  0
LINE
  8
0
 10
0.495087
 20
-2.0408
 11
0.397415
 21
-2.06204
  0
LINE
  8
0
 10
0.397415
 20
-2.06204
 11
0.298859
 21
-2.07861
  0
LINE
  8
0
 10
0.298859
 20
-2.07861
 11
0.199615
 21
-2.09048
  0
LINE
  8
0
 10
0.199615
 20
-2.09048
 11
0.0999146
 21
-2.09761
  0
LINE
  8
0
 10
0.0999146
 20
-2.09761
 11
0
 21
-2.09999
  0
LINE
  8
0
 10
0
 20
-2.09999
 11
-0.0999146
 21
-2.09761
  0
ENDSEC
  0
SECTION
  2
OBJECTS
  0
DICTIONARY
  0
ENDSEC
  0
EOF
