  0
SECTION
  2
BLOCKS
  0
ENDSEC
  0
SECTION
  2
ENTITIES
  0
LINE
  8
0
 10
34.0999
 20
-37.4986
 11
34.1998
 21
-37.4943
  0
LINE
  8
0
 10
34.1998
 20
-37.4943
 11
34.2995
 21
-37.4872
  0
LINE
  8
0
 10
34.2995
 20
-37.4872
 11
34.3989
 21
-37.4772
  0
LINE
  8
0
 10
34.3989
 20
-37.4772
 11
34.4981
 21
-37.4644
  0
LINE
  8
0
 10
34.4981
 20
-37.4644
 11
34.5968
 21
-37.4487
  0
LINE
  8
0
 10
34.5968
 20
-37.4487
 11
34.695
 21
-37.4303
  0
LINE
  8
0
 10
34.695
 20
-37.4303
 11
34.7927
 21
-37.409
  0
LINE
  8
0
 10
34.7927
 20
-37.409
 11
34.8897
 21
-37.385
  0
LINE
  8
0
 10
34.8897
 20
-37.385
 11
34.986
 21
-37.3582
  0
LINE
  8
0
 10
34.986
 20
-37.3582
 11
35.0815
 21
-37.3287
  0
LINE
  8
0
 10
35.0815
 20
-37.3287
 11
35.1761
 21
-37.2964
  0
LINE
  8
0
 10
35.1761
 20
-37.2964
 11
35.2698
 21
-37.2615
  0
LINE
  8
0
 10
35.2698
 20
-37.2615
 11
35.3624
 21
-37.2239
  0
LINE
  8
0
 10
35.3624
 20
-37.2239
 11
35.4539
 21
-37.1837
  0
LINE
  8
0
 10
35.4539
 20
-37.1837
 11
35.5443
 21
-37.1409
  0
LINE
  8
0
 10
35.5443
 20
-37.1409
 11
35.6333
 21
-37.0955
  0
LINE
  8
0
 10
35.6333
 20
-37.0955
 11
35.721
 21
-37.0476
  0
LINE
  8
0
 10
35.721
 20
-37.0476
 11
35.8074
 21
-36.9972
  0
LINE
  8
0
 10
35.8074
 20
-36.9972
 11
35.8922
 21
-36.9444
  0
LINE
  8
0
 10
35.8922
 20
-36.9444
 11
35.9755
 21
-36.8891
  0
LINE
  8
0
 10
35.9755
 20
-36.8891
 11
36.0572
 21
-36.8316
  0
LINE
  8
0
 10
36.0572
 20
-36.8316
 11
36.1372
 21
-36.7717
  0
LINE
  8
0
 10
36.1372
 20
-36.7717
 11
36.2155
 21
-36.7095
  0
LINE
  8
0
 10
36.2155
 20
-36.7095
 11
36.292
 21
-36.6451
  0
LINE
  8
0
 10
36.292
 20
-36.6451
 11
36.3666
 21
-36.5786
  0
LINE
  8
0
 10
36.3666
 20
-36.5786
 11
36.4393
 21
-36.5099
  0
LINE
  8
0
 10
36.4393
 20
-36.5099
 11
36.4753
 21
-36.4739
  0
LINE
  8
0
 10
36.4753
 20
-36.4739
 11
36.5
 21
-36.4986
  0
LINE
  8
0
 10
36.5
 20
-36.4986
 11
36.5
 21
-36.4492
  0
LINE
  8
0
 10
36.5
 20
-36.4492
 11
36.5099
 21
-36.4393
  0
LINE
  8
0
 10
36.5099
 20
-36.4393
 11
36.5786
 21
-36.3666
  0
LINE
  8
0
 10
36.5786
 20
-36.3666
 11
36.6451
 21
-36.292
  0
LINE
  8
0
 10
36.6451
 20
-36.292
 11
36.7095
 21
-36.2155
  0
LINE
  8
0
 10
36.7095
 20
-36.2155
 11
36.7716
 21
-36.1373
  0
LINE
  8
0
 10
36.7716
 20
-36.1373
 11
36.8315
 21
-36.0572
  0
LINE
  8
0
 10
36.8315
 20
-36.0572
 11
36.8891
 21
-35.9755
  0
LINE
  8
0
 10
36.8891
 20
-35.9755
 11
36.9444
 21
-35.8922
  0
LINE
  8
0
 10
36.9444
 20
-35.8922
 11
36.9972
 21
-35.8074
  0
LINE
  8
0
 10
36.9972
 20
-35.8074
 11
37.0476
 21
-35.7211
  0
LINE
  8
0
 10
37.0476
 20
-35.7211
 11
37.0955
 21
-35.6333
  0
LINE
  8
0
 10
37.0955
 20
-35.6333
 11
37.1409
 21
-35.5443
  0
LINE
  8
0
 10
37.1409
 20
-35.5443
 11
37.1837
 21
-35.4539
  0
LINE
  8
0
 10
37.1837
 20
-35.4539
 11
37.2239
 21
-35.3624
  0
LINE
  8
0
 10
37.2239
 20
-35.3624
 11
37.2615
 21
-35.2698
  0
LINE
  8
0
 10
37.2615
 20
-35.2698
 11
37.2964
 21
-35.1762
  0
LINE
  8
0
 10
37.2964
 20
-35.1762
 11
37.3287
 21
-35.0816
  0
LINE
  8
0
 10
37.3287
 20
-35.0816
 11
37.3582
 21
-34.9861
  0
LINE
  8
0
 10
37.3582
 20
-34.9861
 11
37.385
 21
-34.8898
  0
LINE
  8
0
 10
37.385
 20
-34.8898
 11
37.409
 21
-34.7927
  0
LINE
  8
0
 10
37.409
 20
-34.7927
 11
37.4303
 21
-34.6951
  0
LINE
  8
0
 10
37.4303
 20
-34.6951
 11
37.4487
 21
-34.5968
  0
LINE
  8
0
 10
37.4487
 20
-34.5968
 11
37.4644
 21
-34.4981
  0
LINE
  8
0
 10
37.4644
 20
-34.4981
 11
37.4772
 21
-34.399
  0
LINE
  8
0
 10
37.4772
 20
-34.399
 11
37.4871
 21
-34.2995
  0
LINE
  8
0
 10
37.4871
 20
-34.2995
 11
37.4943
 21
-34.1998
  0
LINE
  8
0
 10
37.4943
 20
-34.1998
 11
37.4986
 21
-34.0999
  0
LINE
  8
0
 10
37.4986
 20
-34.0999
 11
37.5
 21
-34
  0
LINE
  8
0
 10
37.5
 20
-34
 11
37.5
 21
34
  0
LINE
  8
0
 10
37.5
 20
34
 11
37.4986
 21
34.0999
  0
LINE
  8
0
 10
37.4986
 20
34.0999
 11
37.4943
 21
34.1998
  0
LINE
  8
0
 10
37.4943
 20
34.1998
 11
37.4871
 21
34.2995
  0
LINE
  8
0
 10
37.4871
 20
34.2995
 11
37.4772
 21
34.399
  0
LINE
  8
0
 10
37.4772
 20
34.399
 11
37.4644
 21
34.4981
  0
LINE
  8
0
 10
37.4644
 20
34.4981
 11
37.4487
 21
34.5968
  0
LINE
  8
0
 10
37.4487
 20
34.5968
 11
37.4303
 21
34.6951
  0
LINE
  8
0
 10
37.4303
 20
34.6951
 11
37.409
 21
34.7927
  0
LINE
  8
0
 10
37.409
 20
34.7927
 11
37.385
 21
34.8898
  0
LINE
  8
0
 10
37.385
 20
34.8898
 11
37.3582
 21
34.9861
  0
LINE
  8
0
 10
37.3582
 20
34.9861
 11
37.3287
 21
35.0816
  0
LINE
  8
0
 10
37.3287
 20
35.0816
 11
37.2964
 21
35.1762
  0
LINE
  8
0
 10
37.2964
 20
35.1762
 11
37.2615
 21
35.2698
  0
LINE
  8
0
 10
37.2615
 20
35.2698
 11
37.2239
 21
35.3624
  0
LINE
  8
0
 10
37.2239
 20
35.3624
 11
37.1837
 21
35.4539
  0
LINE
  8
0
 10
37.1837
 20
35.4539
 11
37.1409
 21
35.5443
  0
LINE
  8
0
 10
37.1409
 20
35.5443
 11
37.0955
 21
35.6333
  0
LINE
  8
0
 10
37.0955
 20
35.6333
 11
37.0476
 21
35.7211
  0
LINE
  8
0
 10
37.0476
 20
35.7211
 11
36.9972
 21
35.8074
  0
LINE
  8
0
 10
36.9972
 20
35.8074
 11
36.9444
 21
35.8922
  0
LINE
  8
0
 10
36.9444
 20
35.8922
 11
36.8891
 21
35.9755
  0
LINE
  8
0
 10
36.8891
 20
35.9755
 11
36.8315
 21
36.0572
  0
LINE
  8
0
 10
36.8315
 20
36.0572
 11
36.7716
 21
36.1373
  0
LINE
  8
0
 10
36.7716
 20
36.1373
 11
36.7095
 21
36.2155
  0
LINE
  8
0
 10
36.7095
 20
36.2155
 11
36.6451
 21
36.292
  0
LINE
  8
0
 10
36.6451
 20
36.292
 11
36.5786
 21
36.3666
  0
LINE
  8
0
 10
36.5786
 20
36.3666
 11
36.5099
 21
36.4393
  0
LINE
  8
0
 10
36.5099
 20
36.4393
 11
36.5
 21
36.4492
  0
LINE
  8
0
 10
36.5
 20
36.4492
 11
36.5
 21
36.5
  0
LINE
  8
0
 10
36.5
 20
36.5
 11
36.4746
 21
36.4746
  0
LINE
  8
0
 10
36.4746
 20
36.4746
 11
36.4393
 21
36.5099
  0
LINE
  8
0
 10
36.4393
 20
36.5099
 11
36.3666
 21
36.5786
  0
LINE
  8
0
 10
36.3666
 20
36.5786
 11
36.292
 21
36.6451
  0
LINE
  8
0
 10
36.292
 20
36.6451
 11
36.2155
 21
36.7095
  0
LINE
  8
0
 10
36.2155
 20
36.7095
 11
36.1372
 21
36.7717
  0
LINE
  8
0
 10
36.1372
 20
36.7717
 11
36.0572
 21
36.8316
  0
LINE
  8
0
 10
36.0572
 20
36.8316
 11
35.9755
 21
36.8891
  0
LINE
  8
0
 10
35.9755
 20
36.8891
 11
35.8922
 21
36.9444
  0
LINE
  8
0
 10
35.8922
 20
36.9444
 11
35.8074
 21
36.9972
  0
LINE
  8
0
 10
35.8074
 20
36.9972
 11
35.721
 21
37.0476
  0
LINE
  8
0
 10
35.721
 20
37.0476
 11
35.6333
 21
37.0955
  0
LINE
  8
0
 10
35.6333
 20
37.0955
 11
35.5443
 21
37.1409
  0
LINE
  8
0
 10
35.5443
 20
37.1409
 11
35.4539
 21
37.1837
  0
LINE
  8
0
 10
35.4539
 20
37.1837
 11
35.3624
 21
37.2239
  0
LINE
  8
0
 10
35.3624
 20
37.2239
 11
35.2698
 21
37.2615
  0
LINE
  8
0
 10
35.2698
 20
37.2615
 11
35.1761
 21
37.2964
  0
LINE
  8
0
 10
35.1761
 20
37.2964
 11
35.0815
 21
37.3287
  0
LINE
  8
0
 10
35.0815
 20
37.3287
 11
34.986
 21
37.3582
  0
LINE
  8
0
 10
34.986
 20
37.3582
 11
34.8897
 21
37.385
  0
LINE
  8
0
 10
34.8897
 20
37.385
 11
34.7927
 21
37.409
  0
LINE
  8
0
 10
34.7927
 20
37.409
 11
34.695
 21
37.4303
  0
LINE
  8
0
 10
34.695
 20
37.4303
 11
34.5968
 21
37.4487
  0
LINE
  8
0
 10
34.5968
 20
37.4487
 11
34.4981
 21
37.4644
  0
LINE
  8
0
 10
34.4981
 20
37.4644
 11
34.3989
 21
37.4772
  0
LINE
  8
0
 10
34.3989
 20
37.4772
 11
34.2995
 21
37.4872
  0
LINE
  8
0
 10
34.2995
 20
37.4872
 11
34.1998
 21
37.4943
  0
LINE
  8
0
 10
34.1998
 20
37.4943
 11
34.0999
 21
37.4986
  0
LINE
  8
0
 10
34.0999
 20
37.4986
 11
34
 21
37.5
  0
LINE
  8
0
 10
34
 20
37.5
 11
29.8
 21
37.5
  0
LINE
  8
0
 10
29.8
 20
37.5
 11
29.7
 21
37.4986
  0
LINE
  8
0
 10
29.7
 20
37.4986
 11
29.6002
 21
37.4943
  0
LINE
  8
0
 10
29.6002
 20
37.4943
 11
29.5005
 21
37.4872
  0
LINE
  8
0
 10
29.5005
 20
37.4872
 11
29.401
 21
37.4772
  0
LINE
  8
0
 10
29.401
 20
37.4772
 11
29.3019
 21
37.4644
  0
LINE
  8
0
 10
29.3019
 20
37.4644
 11
29.2032
 21
37.4487
  0
LINE
  8
0
 10
29.2032
 20
37.4487
 11
29.1049
 21
37.4303
  0
LINE
  8
0
 10
29.1049
 20
37.4303
 11
29.0073
 21
37.409
  0
LINE
  8
0
 10
29.0073
 20
37.409
 11
28.9102
 21
37.385
  0
LINE
  8
0
 10
28.9102
 20
37.385
 11
28.8139
 21
37.3582
  0
LINE
  8
0
 10
28.8139
 20
37.3582
 11
28.7184
 21
37.3287
  0
LINE
  8
0
 10
28.7184
 20
37.3287
 11
28.6238
 21
37.2964
  0
LINE
  8
0
 10
28.6238
 20
37.2964
 11
28.5302
 21
37.2615
  0
LINE
  8
0
 10
28.5302
 20
37.2615
 11
28.4375
 21
37.2239
  0
LINE
  8
0
 10
28.4375
 20
37.2239
 11
28.346
 21
37.1837
  0
LINE
  8
0
 10
28.346
 20
37.1837
 11
28.2557
 21
37.1409
  0
LINE
  8
0
 10
28.2557
 20
37.1409
 11
28.1667
 21
37.0955
  0
LINE
  8
0
 10
28.1667
 20
37.0955
 11
28.0789
 21
37.0476
  0
LINE
  8
0
 10
28.0789
 20
37.0476
 11
27.9926
 21
36.9972
  0
LINE
  8
0
 10
27.9926
 20
36.9972
 11
27.9077
 21
36.9444
  0
LINE
  8
0
 10
27.9077
 20
36.9444
 11
27.8244
 21
36.8891
  0
LINE
  8
0
 10
27.8244
 20
36.8891
 11
27.7428
 21
36.8316
  0
LINE
  8
0
 10
27.7428
 20
36.8316
 11
27.6627
 21
36.7717
  0
LINE
  8
0
 10
27.6627
 20
36.7717
 11
27.5845
 21
36.7095
  0
LINE
  8
0
 10
27.5845
 20
36.7095
 11
27.508
 21
36.6451
  0
LINE
  8
0
 10
27.508
 20
36.6451
 11
27.4334
 21
36.5786
  0
LINE
  8
0
 10
27.4334
 20
36.5786
 11
27.3607
 21
36.5099
  0
LINE
  8
0
 10
27.3607
 20
36.5099
 11
27.29
 21
36.4393
  0
LINE
  8
0
 10
27.29
 20
36.4393
 11
27.2214
 21
36.3666
  0
LINE
  8
0
 10
27.2214
 20
36.3666
 11
27.1549
 21
36.292
  0
LINE
  8
0
 10
27.1549
 20
36.292
 11
27.0905
 21
36.2155
  0
LINE
  8
0
 10
27.0905
 20
36.2155
 11
27.0283
 21
36.1373
  0
LINE
  8
0
 10
27.0283
 20
36.1373
 11
26.9684
 21
36.0572
  0
LINE
  8
0
 10
26.9684
 20
36.0572
 11
26.9108
 21
35.9755
  0
LINE
  8
0
 10
26.9108
 20
35.9755
 11
26.8556
 21
35.8922
  0
LINE
  8
0
 10
26.8556
 20
35.8922
 11
26.8028
 21
35.8074
  0
LINE
  8
0
 10
26.8028
 20
35.8074
 11
26.7524
 21
35.7211
  0
LINE
  8
0
 10
26.7524
 20
35.7211
 11
26.7045
 21
35.6333
  0
LINE
  8
0
 10
26.7045
 20
35.6333
 11
26.6591
 21
35.5443
  0
LINE
  8
0
 10
26.6591
 20
35.5443
 11
26.6163
 21
35.4539
  0
LINE
  8
0
 10
26.6163
 20
35.4539
 11
26.5761
 21
35.3624
  0
LINE
  8
0
 10
26.5761
 20
35.3624
 11
26.5385
 21
35.2698
  0
LINE
  8
0
 10
26.5385
 20
35.2698
 11
26.5035
 21
35.1762
  0
LINE
  8
0
 10
26.5035
 20
35.1762
 11
26.4713
 21
35.0816
  0
LINE
  8
0
 10
26.4713
 20
35.0816
 11
26.4418
 21
34.9861
  0
LINE
  8
0
 10
26.4418
 20
34.9861
 11
26.415
 21
34.8898
  0
LINE
  8
0
 10
26.415
 20
34.8898
 11
26.391
 21
34.7927
  0
LINE
  8
0
 10
26.391
 20
34.7927
 11
26.3697
 21
34.6951
  0
LINE
  8
0
 10
26.3697
 20
34.6951
 11
26.3513
 21
34.5968
  0
LINE
  8
0
 10
26.3513
 20
34.5968
 11
26.3356
 21
34.4981
  0
LINE
  8
0
 10
26.3356
 20
34.4981
 11
26.3228
 21
34.399
  0
LINE
  8
0
 10
26.3228
 20
34.399
 11
26.3128
 21
34.2995
  0
LINE
  8
0
 10
26.3128
 20
34.2995
 11
26.3057
 21
34.1998
  0
LINE
  8
0
 10
26.3057
 20
34.1998
 11
26.3014
 21
34.0999
  0
LINE
  8
0
 10
26.3014
 20
34.0999
 11
26.3
 21
34
  0
LINE
  8
0
 10
26.3
 20
34
 11
26.3
 21
26.3
  0
LINE
  8
0
 10
26.3
 20
26.3
 11
5.4894
 21
5.4894
  0
LINE
  8
0
 10
5.4894
 20
5.4894
 11
5.51137
 21
5.46368
  0
LINE
  8
0
 10
5.51137
 20
5.46368
 11
5.60573
 21
5.34921
  0
LINE
  8
0
 10
5.60573
 20
5.34921
 11
5.69809
 21
5.23311
  0
LINE
  8
0
 10
5.69809
 20
5.23311
 11
5.78839
 21
5.11542
  0
LINE
  8
0
 10
5.78839
 20
5.11542
 11
5.87663
 21
4.99617
  0
LINE
  8
0
 10
5.87663
 20
4.99617
 11
5.96278
 21
4.8754
  0
LINE
  8
0
 10
5.96278
 20
4.8754
 11
6.04681
 21
4.75313
  0
LINE
  8
0
 10
6.04681
 20
4.75313
 11
6.12869
 21
4.62943
  0
LINE
  8
0
 10
6.12869
 20
4.62943
 11
6.2084
 21
4.5043
  0
LINE
  8
0
 10
6.2084
 20
4.5043
 11
6.28592
 21
4.37782
  0
LINE
  8
0
 10
6.28592
 20
4.37782
 11
6.36121
 21
4.25
  0
LINE
  8
0
 10
6.36121
 20
4.25
 11
6.43427
 21
4.12088
  0
LINE
  8
0
 10
6.43427
 20
4.12088
 11
6.50505
 21
3.99049
  0
LINE
  8
0
 10
6.50505
 20
3.99049
 11
6.57355
 21
3.85892
  0
LINE
  8
0
 10
6.57355
 20
3.85892
 11
6.63974
 21
3.72615
  0
LINE
  8
0
 10
6.63974
 20
3.72615
 11
6.70361
 21
3.59225
  0
LINE
  8
0
 10
6.70361
 20
3.59225
 11
6.76512
 21
3.45726
  0
LINE
  8
0
 10
6.76512
 20
3.45726
 11
6.82428
 21
3.32121
  0
LINE
  8
0
 10
6.82428
 20
3.32121
 11
6.88106
 21
3.18414
  0
LINE
  8
0
 10
6.88106
 20
3.18414
 11
6.93542
 21
3.04613
  0
LINE
  8
0
 10
6.93542
 20
3.04613
 11
6.98738
 21
2.90717
  0
LINE
  8
0
 10
6.98738
 20
2.90717
 11
7.0369
 21
2.76732
  0
LINE
  8
0
 10
7.0369
 20
2.76732
 11
7.08397
 21
2.62663
  0
LINE
  8
0
 10
7.08397
 20
2.62663
 11
7.12859
 21
2.48515
  0
LINE
  8
0
 10
7.12859
 20
2.48515
 11
7.17072
 21
2.34291
  0
LINE
  8
0
 10
7.17072
 20
2.34291
 11
7.21036
 21
2.19995
  0
LINE
  8
0
 10
7.21036
 20
2.19995
 11
7.24751
 21
2.05634
  0
LINE
  8
0
 10
7.24751
 20
2.05634
 11
7.28214
 21
1.91208
  0
LINE
  8
0
 10
7.28214
 20
1.91208
 11
7.31424
 21
1.76724
  0
LINE
  8
0
 10
7.31424
 20
1.76724
 11
7.34383
 21
1.62187
  0
LINE
  8
0
 10
7.34383
 20
1.62187
 11
7.37086
 21
1.476
  0
LINE
  8
0
 10
7.37086
 20
1.476
 11
7.39534
 21
1.32968
  0
LINE
  8
0
 10
7.39534
 20
1.32968
 11
7.41727
 21
1.18297
  0
LINE
  8
0
 10
7.41727
 20
1.18297
 11
7.43663
 21
1.03589
  0
LINE
  8
0
 10
7.43663
 20
1.03589
 11
7.45343
 21
0.888489
  0
LINE
  8
0
 10
7.45343
 20
0.888489
 11
7.46765
 21
0.740814
  0
LINE
  8
0
 10
7.46765
 20
0.740814
 11
7.47929
 21
0.592926
  0
LINE
  8
0
 10
7.47929
 20
0.592926
 11
7.48834
 21
0.444855
  0
LINE
  8
0
 10
7.48834
 20
0.444855
 11
7.49481
 21
0.296631
  0
LINE
  8
0
 10
7.49481
 20
0.296631
 11
7.4987
 21
0.148331
  0
LINE
  8
0
 10
7.4987
 20
0.148331
 11
7.5
 21
0
  0
LINE
  8
0
 10
7.5
 20
0
 11
7.4987
 21
-0.148331
  0
LINE
  8
0
 10
7.4987
 20
-0.148331
 11
7.49481
 21
-0.296631
  0
LINE
  8
0
 10
7.49481
 20
-0.296631
 11
7.48834
 21
-0.444855
  0
LINE
  8
0
 10
7.48834
 20
-0.444855
 11
7.47929
 21
-0.592926
  0
LINE
  8
0
 10
7.47929
 20
-0.592926
 11
7.46765
 21
-0.740814
  0
LINE
  8
0
 10
7.46765
 20
-0.740814
 11
7.45343
 21
-0.888489
  0
LINE
  8
0
 10
7.45343
 20
-0.888489
 11
7.43663
 21
-1.03589
  0
LINE
  8
0
 10
7.43663
 20
-1.03589
 11
7.41727
 21
-1.18297
  0
LINE
  8
0
 10
7.41727
 20
-1.18297
 11
7.39534
 21
-1.32968
  0
LINE
  8
0
 10
7.39534
 20
-1.32968
 11
7.37086
 21
-1.476
  0
LINE
  8
0
 10
7.37086
 20
-1.476
 11
7.34383
 21
-1.62187
  0
LINE
  8
0
 10
7.34383
 20
-1.62187
 11
7.31424
 21
-1.76724
  0
LINE
  8
0
 10
7.31424
 20
-1.76724
 11
7.28214
 21
-1.91208
  0
LINE
  8
0
 10
7.28214
 20
-1.91208
 11
7.24751
 21
-2.05634
  0
LINE
  8
0
 10
7.24751
 20
-2.05634
 11
7.21036
 21
-2.19995
  0
LINE
  8
0
 10
7.21036
 20
-2.19995
 11
7.17072
 21
-2.34291
  0
LINE
  8
0
 10
7.17072
 20
-2.34291
 11
7.12859
 21
-2.48515
  0
LINE
  8
0
 10
7.12859
 20
-2.48515
 11
7.08397
 21
-2.62663
  0
LINE
  8
0
 10
7.08397
 20
-2.62663
 11
7.0369
 21
-2.76732
  0
LINE
  8
0
 10
7.0369
 20
-2.76732
 11
6.98738
 21
-2.90717
  0
LINE
  8
0
 10
6.98738
 20
-2.90717
 11
6.93542
 21
-3.04613
  0
LINE
  8
0
 10
6.93542
 20
-3.04613
 11
6.88106
 21
-3.18414
  0
LINE
  8
0
 10
6.88106
 20
-3.18414
 11
6.82428
 21
-3.32121
  0
LINE
  8
0
 10
6.82428
 20
-3.32121
 11
6.76512
 21
-3.45726
  0
LINE
  8
0
 10
6.76512
 20
-3.45726
 11
6.70361
 21
-3.59225
  0
LINE
  8
0
 10
6.70361
 20
-3.59225
 11
6.63974
 21
-3.72615
  0
LINE
  8
0
 10
6.63974
 20
-3.72615
 11
6.57355
 21
-3.85892
  0
LINE
  8
0
 10
6.57355
 20
-3.85892
 11
6.50505
 21
-3.99049
  0
LINE
  8
0
 10
6.50505
 20
-3.99049
 11
6.43427
 21
-4.12088
  0
LINE
  8
0
 10
6.43427
 20
-4.12088
 11
6.36121
 21
-4.25
  0
LINE
  8
0
 10
6.36121
 20
-4.25
 11
6.28592
 21
-4.37782
  0
LINE
  8
0
 10
6.28592
 20
-4.37782
 11
6.2084
 21
-4.5043
  0
LINE
  8
0
 10
6.2084
 20
-4.5043
 11
6.12869
 21
-4.62943
  0
LINE
  8
0
 10
6.12869
 20
-4.62943
 11
6.04681
 21
-4.75313
  0
LINE
  8
0
 10
6.04681
 20
-4.75313
 11
5.96278
 21
-4.8754
  0
LINE
  8
0
 10
5.96278
 20
-4.8754
 11
5.87663
 21
-4.99617
  0
LINE
  8
0
 10
5.87663
 20
-4.99617
 11
5.78839
 21
-5.11542
  0
LINE
  8
0
 10
5.78839
 20
-5.11542
 11
5.69809
 21
-5.23311
  0
LINE
  8
0
 10
5.69809
 20
-5.23311
 11
5.60573
 21
-5.34921
  0
LINE
  8
0
 10
5.60573
 20
-5.34921
 11
5.51137
 21
-5.46368
  0
LINE
  8
0
 10
5.51137
 20
-5.46368
 11
5.49005
 21
-5.48865
  0
LINE
  8
0
 10
5.49005
 20
-5.48865
 11
26.3
 21
-26.2986
  0
LINE
  8
0
 10
26.3
 20
-26.2986
 11
26.3
 21
-34
  0
LINE
  8
0
 10
26.3
 20
-34
 11
26.3014
 21
-34.0999
  0
LINE
  8
0
 10
26.3014
 20
-34.0999
 11
26.3057
 21
-34.1998
  0
LINE
  8
0
 10
26.3057
 20
-34.1998
 11
26.3128
 21
-34.2995
  0
LINE
  8
0
 10
26.3128
 20
-34.2995
 11
26.3228
 21
-34.399
  0
LINE
  8
0
 10
26.3228
 20
-34.399
 11
26.3356
 21
-34.4981
  0
LINE
  8
0
 10
26.3356
 20
-34.4981
 11
26.3513
 21
-34.5968
  0
LINE
  8
0
 10
26.3513
 20
-34.5968
 11
26.3697
 21
-34.6951
  0
LINE
  8
0
 10
26.3697
 20
-34.6951
 11
26.391
 21
-34.7927
  0
LINE
  8
0
 10
26.391
 20
-34.7927
 11
26.415
 21
-34.8898
  0
LINE
  8
0
 10
26.415
 20
-34.8898
 11
26.4418
 21
-34.9861
  0
LINE
  8
0
 10
26.4418
 20
-34.9861
 11
26.4713
 21
-35.0816
  0
LINE
  8
0
 10
26.4713
 20
-35.0816
 11
26.5035
 21
-35.1762
  0
LINE
  8
0
 10
26.5035
 20
-35.1762
 11
26.5385
 21
-35.2698
  0
LINE
  8
0
 10
26.5385
 20
-35.2698
 11
26.5761
 21
-35.3624
  0
LINE
  8
0
 10
26.5761
 20
-35.3624
 11
26.6163
 21
-35.4539
  0
LINE
  8
0
 10
26.6163
 20
-35.4539
 11
26.6591
 21
-35.5443
  0
LINE
  8
0
 10
26.6591
 20
-35.5443
 11
26.7045
 21
-35.6333
  0
LINE
  8
0
 10
26.7045
 20
-35.6333
 11
26.7524
 21
-35.7211
  0
LINE
  8
0
 10
26.7524
 20
-35.7211
 11
26.8028
 21
-35.8074
  0
LINE
  8
0
 10
26.8028
 20
-35.8074
 11
26.8556
 21
-35.8922
  0
LINE
  8
0
 10
26.8556
 20
-35.8922
 11
26.9108
 21
-35.9755
  0
LINE
  8
0
 10
26.9108
 20
-35.9755
 11
26.9684
 21
-36.0572
  0
LINE
  8
0
 10
26.9684
 20
-36.0572
 11
27.0283
 21
-36.1373
  0
LINE
  8
0
 10
27.0283
 20
-36.1373
 11
27.0905
 21
-36.2155
  0
LINE
  8
0
 10
27.0905
 20
-36.2155
 11
27.1549
 21
-36.292
  0
LINE
  8
0
 10
27.1549
 20
-36.292
 11
27.2214
 21
-36.3666
  0
LINE
  8
0
 10
27.2214
 20
-36.3666
 11
27.29
 21
-36.4393
  0
LINE
  8
0
 10
27.29
 20
-36.4393
 11
27.3607
 21
-36.5099
  0
LINE
  8
0
 10
27.3607
 20
-36.5099
 11
27.4334
 21
-36.5786
  0
LINE
  8
0
 10
27.4334
 20
-36.5786
 11
27.508
 21
-36.6451
  0
LINE
  8
0
 10
27.508
 20
-36.6451
 11
27.5845
 21
-36.7095
  0
LINE
  8
0
 10
27.5845
 20
-36.7095
 11
27.6627
 21
-36.7717
  0
LINE
  8
0
 10
27.6627
 20
-36.7717
 11
27.7428
 21
-36.8316
  0
LINE
  8
0
 10
27.7428
 20
-36.8316
 11
27.8244
 21
-36.8891
  0
LINE
  8
0
 10
27.8244
 20
-36.8891
 11
27.9077
 21
-36.9444
  0
LINE
  8
0
 10
27.9077
 20
-36.9444
 11
27.9926
 21
-36.9972
  0
LINE
  8
0
 10
27.9926
 20
-36.9972
 11
28.0789
 21
-37.0476
  0
LINE
  8
0
 10
28.0789
 20
-37.0476
 11
28.1667
 21
-37.0955
  0
LINE
  8
0
 10
28.1667
 20
-37.0955
 11
28.2557
 21
-37.1409
  0
LINE
  8
0
 10
28.2557
 20
-37.1409
 11
28.346
 21
-37.1837
  0
LINE
  8
0
 10
28.346
 20
-37.1837
 11
28.4375
 21
-37.2239
  0
LINE
  8
0
 10
28.4375
 20
-37.2239
 11
28.5302
 21
-37.2615
  0
LINE
  8
0
 10
28.5302
 20
-37.2615
 11
28.6238
 21
-37.2964
  0
LINE
  8
0
 10
28.6238
 20
-37.2964
 11
28.7184
 21
-37.3287
  0
LINE
  8
0
 10
28.7184
 20
-37.3287
 11
28.8139
 21
-37.3582
  0
LINE
  8
0
 10
28.8139
 20
-37.3582
 11
28.9102
 21
-37.385
  0
LINE
  8
0
 10
28.9102
 20
-37.385
 11
29.0073
 21
-37.409
  0
LINE
  8
0
 10
29.0073
 20
-37.409
 11
29.1049
 21
-37.4303
  0
LINE
  8
0
 10
29.1049
 20
-37.4303
 11
29.2032
 21
-37.4487
  0
LINE
  8
0
 10
29.2032
 20
-37.4487
 11
29.3019
 21
-37.4644
  0
LINE
  8
0
 10
29.3019
 20
-37.4644
 11
29.401
 21
-37.4772
  0
LINE
  8
0
 10
29.401
 20
-37.4772
 11
29.5005
 21
-37.4872
  0
LINE
  8
0
 10
29.5005
 20
-37.4872
 11
29.6002
 21
-37.4943
  0
LINE
  8
0
 10
29.6002
 20
-37.4943
 11
29.7
 21
-37.4986
  0
LINE
  8
0
 10
29.7
 20
-37.4986
 11
29.8
 21
-37.5
  0
LINE
  8
0
 10
29.8
 20
-37.5
 11
34
 21
-37.5
  0
LINE
  8
0
 10
34
 20
-37.5
 11
34.0999
 21
-37.4986
  0
LINE
  8
0
 10
31.8001
 20
29.8024
 11
31.7004
 21
29.8095
  0
LINE
  8
0
 10
31.7004
 20
29.8095
 11
31.6011
 21
29.8214
  0
LINE
  8
0
 10
31.6011
 20
29.8214
 11
31.5026
 21
29.8379
  0
LINE
  8
0
 10
31.5026
 20
29.8379
 11
31.4049
 21
29.8592
  0
LINE
  8
0
 10
31.4049
 20
29.8592
 11
31.3083
 21
29.8851
  0
LINE
  8
0
 10
31.3083
 20
29.8851
 11
31.2132
 21
29.9155
  0
LINE
  8
0
 10
31.2132
 20
29.9155
 11
31.1195
 21
29.9504
  0
LINE
  8
0
 10
31.1195
 20
29.9504
 11
31.0276
 21
29.9898
  0
LINE
  8
0
 10
31.0276
 20
29.9898
 11
30.9377
 21
30.0334
  0
LINE
  8
0
 10
30.9377
 20
30.0334
 11
30.85
 21
30.0813
  0
LINE
  8
0
 10
30.85
 20
30.0813
 11
30.7646
 21
30.1334
  0
LINE
  8
0
 10
30.7646
 20
30.1334
 11
30.6819
 21
30.1894
  0
LINE
  8
0
 10
30.6819
 20
30.1894
 11
30.6019
 21
30.2493
  0
LINE
  8
0
 10
30.6019
 20
30.2493
 11
30.5248
 21
30.3129
  0
LINE
  8
0
 10
30.5248
 20
30.3129
 11
30.4508
 21
30.3802
  0
LINE
  8
0
 10
30.4508
 20
30.3802
 11
30.3802
 21
30.4508
  0
LINE
  8
0
 10
30.3802
 20
30.4508
 11
30.3129
 21
30.5248
  0
LINE
  8
0
 10
30.3129
 20
30.5248
 11
30.2493
 21
30.6019
  0
LINE
  8
0
 10
30.2493
 20
30.6019
 11
30.1894
 21
30.6819
  0
LINE
  8
0
 10
30.1894
 20
30.6819
 11
30.1334
 21
30.7646
  0
LINE
  8
0
 10
30.1334
 20
30.7646
 11
30.0813
 21
30.85
  0
LINE
  8
0
 10
30.0813
 20
30.85
 11
30.0334
 21
30.9377
  0
LINE
  8
0
 10
30.0334
 20
30.9377
 11
29.9898
 21
31.0276
  0
LINE
  8
0
 10
29.9898
 20
31.0276
 11
29.9504
 21
31.1195
  0
LINE
  8
0
 10
29.9504
 20
31.1195
 11
29.9155
 21
31.2132
  0
LINE
  8
0
 10
29.9155
 20
31.2132
 11
29.8851
 21
31.3083
  0
LINE
  8
0
 10
29.8851
 20
31.3083
 11
29.8592
 21
31.4049
  0
LINE
  8
0
 10
29.8592
 20
31.4049
 11
29.8379
 21
31.5026
  0
LINE
  8
0
 10
29.8379
 20
31.5026
 11
29.8214
 21
31.6011
  0
LINE
  8
0
 10
29.8214
 20
31.6011
 11
29.8095
 21
31.7004
  0
LINE
  8
0
 10
29.8095
 20
31.7004
 11
29.8024
 21
31.8001
  0
LINE
  8
0
 10
29.8024
 20
31.8001
 11
29.8
 21
31.9
  0
LINE
  8
0
 10
29.8
 20
31.9
 11
29.8024
 21
31.9999
  0
LINE
  8
0
 10
29.8024
 20
31.9999
 11
29.8095
 21
32.0996
  0
LINE
  8
0
 10
29.8095
 20
32.0996
 11
29.8214
 21
32.1989
  0
LINE
  8
0
 10
29.8214
 20
32.1989
 11
29.8379
 21
32.2974
  0
LINE
  8
0
 10
29.8379
 20
32.2974
 11
29.8592
 21
32.3951
  0
LINE
  8
0
 10
29.8592
 20
32.3951
 11
29.8851
 21
32.4916
  0
LINE
  8
0
 10
29.8851
 20
32.4916
 11
29.9155
 21
32.5868
  0
LINE
  8
0
 10
29.9155
 20
32.5868
 11
29.9504
 21
32.6805
  0
LINE
  8
0
 10
29.9504
 20
32.6805
 11
29.9898
 21
32.7724
  0
LINE
  8
0
 10
29.9898
 20
32.7724
 11
30.0334
 21
32.8623
  0
LINE
  8
0
 10
30.0334
 20
32.8623
 11
30.0813
 21
32.95
  0
LINE
  8
0
 10
30.0813
 20
32.95
 11
30.1334
 21
33.0353
  0
LINE
  8
0
 10
30.1334
 20
33.0353
 11
30.1894
 21
33.1181
  0
LINE
  8
0
 10
30.1894
 20
33.1181
 11
30.2493
 21
33.1981
  0
LINE
  8
0
 10
30.2493
 20
33.1981
 11
30.3129
 21
33.2752
  0
LINE
  8
0
 10
30.3129
 20
33.2752
 11
30.3802
 21
33.3492
  0
LINE
  8
0
 10
30.3802
 20
33.3492
 11
30.4508
 21
33.4198
  0
LINE
  8
0
 10
30.4508
 20
33.4198
 11
30.5248
 21
33.4871
  0
LINE
  8
0
 10
30.5248
 20
33.4871
 11
30.6019
 21
33.5507
  0
LINE
  8
0
 10
30.6019
 20
33.5507
 11
30.6819
 21
33.6106
  0
LINE
  8
0
 10
30.6819
 20
33.6106
 11
30.7646
 21
33.6666
  0
LINE
  8
0
 10
30.7646
 20
33.6666
 11
30.85
 21
33.7186
  0
LINE
  8
0
 10
30.85
 20
33.7186
 11
30.9377
 21
33.7665
  0
LINE
  8
0
 10
30.9377
 20
33.7665
 11
31.0276
 21
33.8102
  0
LINE
  8
0
 10
31.0276
 20
33.8102
 11
31.1195
 21
33.8496
  0
LINE
  8
0
 10
31.1195
 20
33.8496
 11
31.2132
 21
33.8845
  0
LINE
  8
0
 10
31.2132
 20
33.8845
 11
31.3083
 21
33.9149
  0
LINE
  8
0
 10
31.3083
 20
33.9149
 11
31.4049
 21
33.9408
  0
LINE
  8
0
 10
31.4049
 20
33.9408
 11
31.5026
 21
33.962
  0
LINE
  8
0
 10
31.5026
 20
33.962
 11
31.6011
 21
33.9786
  0
LINE
  8
0
 10
31.6011
 20
33.9786
 11
31.7004
 21
33.9905
  0
LINE
  8
0
 10
31.7004
 20
33.9905
 11
31.8001
 21
33.9976
  0
LINE
  8
0
 10
31.8001
 20
33.9976
 11
31.9
 21
34
  0
LINE
  8
0
 10
31.9
 20
34
 11
31.9999
 21
33.9976
  0
LINE
  8
0
 10
31.9999
 20
33.9976
 11
32.0996
 21
33.9905
  0
LINE
  8
0
 10
32.0996
 20
33.9905
 11
32.1989
 21
33.9786
  0
LINE
  8
0
 10
32.1989
 20
33.9786
 11
32.2974
 21
33.962
  0
LINE
  8
0
 10
32.2974
 20
33.962
 11
32.3951
 21
33.9408
  0
LINE
  8
0
 10
32.3951
 20
33.9408
 11
32.4916
 21
33.9149
  0
LINE
  8
0
 10
32.4916
 20
33.9149
 11
32.5868
 21
33.8845
  0
LINE
  8
0
 10
32.5868
 20
33.8845
 11
32.6805
 21
33.8496
  0
LINE
  8
0
 10
32.6805
 20
33.8496
 11
32.7724
 21
33.8102
  0
LINE
  8
0
 10
32.7724
 20
33.8102
 11
32.8623
 21
33.7665
  0
LINE
  8
0
 10
32.8623
 20
33.7665
 11
32.95
 21
33.7186
  0
LINE
  8
0
 10
32.95
 20
33.7186
 11
33.0353
 21
33.6666
  0
LINE
  8
0
 10
33.0353
 20
33.6666
 11
33.1181
 21
33.6106
  0
LINE
  8
0
 10
33.1181
 20
33.6106
 11
33.1981
 21
33.5507
  0
LINE
  8
0
 10
33.1981
 20
33.5507
 11
33.2752
 21
33.4871
  0
LINE
  8
0
 10
33.2752
 20
33.4871
 11
33.3492
 21
33.4198
  0
LINE
  8
0
 10
33.3492
 20
33.4198
 11
33.4198
 21
33.3492
  0
LINE
  8
0
 10
33.4198
 20
33.3492
 11
33.4871
 21
33.2752
  0
LINE
  8
0
 10
33.4871
 20
33.2752
 11
33.5507
 21
33.1981
  0
LINE
  8
0
 10
33.5507
 20
33.1981
 11
33.6106
 21
33.1181
  0
LINE
  8
0
 10
33.6106
 20
33.1181
 11
33.6666
 21
33.0353
  0
LINE
  8
0
 10
33.6666
 20
33.0353
 11
33.7186
 21
32.95
  0
LINE
  8
0
 10
33.7186
 20
32.95
 11
33.7665
 21
32.8623
  0
LINE
  8
0
 10
33.7665
 20
32.8623
 11
33.8102
 21
32.7724
  0
LINE
  8
0
 10
33.8102
 20
32.7724
 11
33.8496
 21
32.6805
  0
LINE
  8
0
 10
33.8496
 20
32.6805
 11
33.8845
 21
32.5868
  0
LINE
  8
0
 10
33.8845
 20
32.5868
 11
33.9149
 21
32.4916
  0
LINE
  8
0
 10
33.9149
 20
32.4916
 11
33.9408
 21
32.3951
  0
LINE
  8
0
 10
33.9408
 20
32.3951
 11
33.962
 21
32.2974
  0
LINE
  8
0
 10
33.962
 20
32.2974
 11
33.9786
 21
32.1989
  0
LINE
  8
0
 10
33.9786
 20
32.1989
 11
33.9905
 21
32.0996
  0
LINE
  8
0
 10
33.9905
 20
32.0996
 11
33.9976
 21
31.9999
  0
LINE
  8
0
 10
33.9976
 20
31.9999
 11
34
 21
31.9
  0
LINE
  8
0
 10
34
 20
31.9
 11
33.9976
 21
31.8001
  0
LINE
  8
0
 10
33.9976
 20
31.8001
 11
33.9905
 21
31.7004
  0
LINE
  8
0
 10
33.9905
 20
31.7004
 11
33.9786
 21
31.6011
  0
LINE
  8
0
 10
33.9786
 20
31.6011
 11
33.962
 21
31.5026
  0
LINE
  8
0
 10
33.962
 20
31.5026
 11
33.9408
 21
31.4049
  0
LINE
  8
0
 10
33.9408
 20
31.4049
 11
33.9149
 21
31.3083
  0
LINE
  8
0
 10
33.9149
 20
31.3083
 11
33.8845
 21
31.2132
  0
LINE
  8
0
 10
33.8845
 20
31.2132
 11
33.8496
 21
31.1195
  0
LINE
  8
0
 10
33.8496
 20
31.1195
 11
33.8102
 21
31.0276
  0
LINE
  8
0
 10
33.8102
 20
31.0276
 11
33.7665
 21
30.9377
  0
LINE
  8
0
 10
33.7665
 20
30.9377
 11
33.7186
 21
30.85
  0
LINE
  8
0
 10
33.7186
 20
30.85
 11
33.6666
 21
30.7646
  0
LINE
  8
0
 10
33.6666
 20
30.7646
 11
33.6106
 21
30.6819
  0
LINE
  8
0
 10
33.6106
 20
30.6819
 11
33.5507
 21
30.6019
  0
LINE
  8
0
 10
33.5507
 20
30.6019
 11
33.4871
 21
30.5248
  0
LINE
  8
0
 10
33.4871
 20
30.5248
 11
33.4198
 21
30.4508
  0
LINE
  8
0
 10
33.4198
 20
30.4508
 11
33.3492
 21
30.3802
  0
LINE
  8
0
 10
33.3492
 20
30.3802
 11
33.2752
 21
30.3129
  0
LINE
  8
0
 10
33.2752
 20
30.3129
 11
33.1981
 21
30.2493
  0
LINE
  8
0
 10
33.1981
 20
30.2493
 11
33.1181
 21
30.1894
  0
LINE
  8
0
 10
33.1181
 20
30.1894
 11
33.0353
 21
30.1334
  0
LINE
  8
0
 10
33.0353
 20
30.1334
 11
32.95
 21
30.0813
  0
LINE
  8
0
 10
32.95
 20
30.0813
 11
32.8623
 21
30.0334
  0
LINE
  8
0
 10
32.8623
 20
30.0334
 11
32.7724
 21
29.9898
  0
LINE
  8
0
 10
32.7724
 20
29.9898
 11
32.6805
 21
29.9504
  0
LINE
  8
0
 10
32.6805
 20
29.9504
 11
32.5868
 21
29.9155
  0
LINE
  8
0
 10
32.5868
 20
29.9155
 11
32.4916
 21
29.8851
  0
LINE
  8
0
 10
32.4916
 20
29.8851
 11
32.3951
 21
29.8592
  0
LINE
  8
0
 10
32.3951
 20
29.8592
 11
32.2974
 21
29.8379
  0
LINE
  8
0
 10
32.2974
 20
29.8379
 11
32.1989
 21
29.8214
  0
LINE
  8
0
 10
32.1989
 20
29.8214
 11
32.0996
 21
29.8095
  0
LINE
  8
0
 10
32.0996
 20
29.8095
 11
31.9999
 21
29.8024
  0
LINE
  8
0
 10
31.9999
 20
29.8024
 11
31.9
 21
29.8
  0
LINE
  8
0
 10
31.9
 20
29.8
 11
31.8001
 21
29.8024
  0
LINE
  8
0
 10
31.8001
 20
-33.9976
 11
31.7004
 21
-33.9905
  0
LINE
  8
0
 10
31.7004
 20
-33.9905
 11
31.6011
 21
-33.9786
  0
LINE
  8
0
 10
31.6011
 20
-33.9786
 11
31.5026
 21
-33.962
  0
LINE
  8
0
 10
31.5026
 20
-33.962
 11
31.4049
 21
-33.9408
  0
LINE
  8
0
 10
31.4049
 20
-33.9408
 11
31.3083
 21
-33.9149
  0
LINE
  8
0
 10
31.3083
 20
-33.9149
 11
31.2132
 21
-33.8845
  0
LINE
  8
0
 10
31.2132
 20
-33.8845
 11
31.1195
 21
-33.8496
  0
LINE
  8
0
 10
31.1195
 20
-33.8496
 11
31.0276
 21
-33.8102
  0
LINE
  8
0
 10
31.0276
 20
-33.8102
 11
30.9377
 21
-33.7665
  0
LINE
  8
0
 10
30.9377
 20
-33.7665
 11
30.85
 21
-33.7186
  0
LINE
  8
0
 10
30.85
 20
-33.7186
 11
30.7646
 21
-33.6666
  0
LINE
  8
0
 10
30.7646
 20
-33.6666
 11
30.6819
 21
-33.6106
  0
LINE
  8
0
 10
30.6819
 20
-33.6106
 11
30.6019
 21
-33.5507
  0
LINE
  8
0
 10
30.6019
 20
-33.5507
 11
30.5248
 21
-33.4871
  0
LINE
  8
0
 10
30.5248
 20
-33.4871
 11
30.4508
 21
-33.4198
  0
LINE
  8
0
 10
30.4508
 20
-33.4198
 11
30.3802
 21
-33.3492
  0
LINE
  8
0
 10
30.3802
 20
-33.3492
 11
30.3129
 21
-33.2752
  0
LINE
  8
0
 10
30.3129
 20
-33.2752
 11
30.2493
 21
-33.1981
  0
LINE
  8
0
 10
30.2493
 20
-33.1981
 11
30.1894
 21
-33.1181
  0
LINE
  8
0
 10
30.1894
 20
-33.1181
 11
30.1334
 21
-33.0353
  0
LINE
  8
0
 10
30.1334
 20
-33.0353
 11
30.0813
 21
-32.95
  0
LINE
  8
0
 10
30.0813
 20
-32.95
 11
30.0334
 21
-32.8623
  0
LINE
  8
0
 10
30.0334
 20
-32.8623
 11
29.9898
 21
-32.7724
  0
LINE
  8
0
 10
29.9898
 20
-32.7724
 11
29.9504
 21
-32.6805
  0
LINE
  8
0
 10
29.9504
 20
-32.6805
 11
29.9155
 21
-32.5868
  0
LINE
  8
0
 10
29.9155
 20
-32.5868
 11
29.8851
 21
-32.4916
  0
LINE
  8
0
 10
29.8851
 20
-32.4916
 11
29.8592
 21
-32.3951
  0
LINE
  8
0
 10
29.8592
 20
-32.3951
 11
29.8379
 21
-32.2974
  0
LINE
  8
0
 10
29.8379
 20
-32.2974
 11
29.8214
 21
-32.1989
  0
LINE
  8
0
 10
29.8214
 20
-32.1989
 11
29.8095
 21
-32.0996
  0
LINE
  8
0
 10
29.8095
 20
-32.0996
 11
29.8024
 21
-31.9999
  0
LINE
  8
0
 10
29.8024
 20
-31.9999
 11
29.8
 21
-31.9
  0
LINE
  8
0
 10
29.8
 20
-31.9
 11
29.8024
 21
-31.8001
  0
LINE
  8
0
 10
29.8024
 20
-31.8001
 11
29.8095
 21
-31.7004
  0
LINE
  8
0
 10
29.8095
 20
-31.7004
 11
29.8214
 21
-31.6011
  0
LINE
  8
0
 10
29.8214
 20
-31.6011
 11
29.8379
 21
-31.5026
  0
LINE
  8
0
 10
29.8379
 20
-31.5026
 11
29.8592
 21
-31.4049
  0
LINE
  8
0
 10
29.8592
 20
-31.4049
 11
29.8851
 21
-31.3083
  0
LINE
  8
0
 10
29.8851
 20
-31.3083
 11
29.9155
 21
-31.2132
  0
LINE
  8
0
 10
29.9155
 20
-31.2132
 11
29.9504
 21
-31.1195
  0
LINE
  8
0
 10
29.9504
 20
-31.1195
 11
29.9898
 21
-31.0276
  0
LINE
  8
0
 10
29.9898
 20
-31.0276
 11
30.0334
 21
-30.9377
  0
LINE
  8
0
 10
30.0334
 20
-30.9377
 11
30.0813
 21
-30.85
  0
LINE
  8
0
 10
30.0813
 20
-30.85
 11
30.1334
 21
-30.7646
  0
LINE
  8
0
 10
30.1334
 20
-30.7646
 11
30.1894
 21
-30.6819
  0
LINE
  8
0
 10
30.1894
 20
-30.6819
 11
30.2493
 21
-30.6019
  0
LINE
  8
0
 10
30.2493
 20
-30.6019
 11
30.3129
 21
-30.5248
  0
LINE
  8
0
 10
30.3129
 20
-30.5248
 11
30.3802
 21
-30.4508
  0
LINE
  8
0
 10
30.3802
 20
-30.4508
 11
30.4508
 21
-30.3802
  0
LINE
  8
0
 10
30.4508
 20
-30.3802
 11
30.5248
 21
-30.3129
  0
LINE
  8
0
 10
30.5248
 20
-30.3129
 11
30.6019
 21
-30.2493
  0
LINE
  8
0
 10
30.6019
 20
-30.2493
 11
30.6819
 21
-30.1894
  0
LINE
  8
0
 10
30.6819
 20
-30.1894
 11
30.7646
 21
-30.1334
  0
LINE
  8
0
 10
30.7646
 20
-30.1334
 11
30.85
 21
-30.0813
  0
LINE
  8
0
 10
30.85
 20
-30.0813
 11
30.9377
 21
-30.0334
  0
LINE
  8
0
 10
30.9377
 20
-30.0334
 11
31.0276
 21
-29.9898
  0
LINE
  8
0
 10
31.0276
 20
-29.9898
 11
31.1195
 21
-29.9504
  0
LINE
  8
0
 10
31.1195
 20
-29.9504
 11
31.2132
 21
-29.9155
  0
LINE
  8
0
 10
31.2132
 20
-29.9155
 11
31.3083
 21
-29.8851
  0
LINE
  8
0
 10
31.3083
 20
-29.8851
 11
31.4049
 21
-29.8592
  0
LINE
  8
0
 10
31.4049
 20
-29.8592
 11
31.5026
 21
-29.8379
  0
LINE
  8
0
 10
31.5026
 20
-29.8379
 11
31.6011
 21
-29.8214
  0
LINE
  8
0
 10
31.6011
 20
-29.8214
 11
31.7004
 21
-29.8095
  0
LINE
  8
0
 10
31.7004
 20
-29.8095
 11
31.8001
 21
-29.8024
  0
LINE
  8
0
 10
31.8001
 20
-29.8024
 11
31.9
 21
-29.8
  0
LINE
  8
0
 10
31.9
 20
-29.8
 11
31.9999
 21
-29.8024
  0
LINE
  8
0
 10
31.9999
 20
-29.8024
 11
32.0996
 21
-29.8095
  0
LINE
  8
0
 10
32.0996
 20
-29.8095
 11
32.1989
 21
-29.8214
  0
LINE
  8
0
 10
32.1989
 20
-29.8214
 11
32.2974
 21
-29.8379
  0
LINE
  8
0
 10
32.2974
 20
-29.8379
 11
32.3951
 21
-29.8592
  0
LINE
  8
0
 10
32.3951
 20
-29.8592
 11
32.4916
 21
-29.8851
  0
LINE
  8
0
 10
32.4916
 20
-29.8851
 11
32.5868
 21
-29.9155
  0
LINE
  8
0
 10
32.5868
 20
-29.9155
 11
32.6805
 21
-29.9504
  0
LINE
  8
0
 10
32.6805
 20
-29.9504
 11
32.7724
 21
-29.9898
  0
LINE
  8
0
 10
32.7724
 20
-29.9898
 11
32.8623
 21
-30.0334
  0
LINE
  8
0
 10
32.8623
 20
-30.0334
 11
32.95
 21
-30.0813
  0
LINE
  8
0
 10
32.95
 20
-30.0813
 11
33.0353
 21
-30.1334
  0
LINE
  8
0
 10
33.0353
 20
-30.1334
 11
33.1181
 21
-30.1894
  0
LINE
  8
0
 10
33.1181
 20
-30.1894
 11
33.1981
 21
-30.2493
  0
LINE
  8
0
 10
33.1981
 20
-30.2493
 11
33.2752
 21
-30.3129
  0
LINE
  8
0
 10
33.2752
 20
-30.3129
 11
33.3492
 21
-30.3802
  0
LINE
  8
0
 10
33.3492
 20
-30.3802
 11
33.4198
 21
-30.4508
  0
LINE
  8
0
 10
33.4198
 20
-30.4508
 11
33.4871
 21
-30.5248
  0
LINE
  8
0
 10
33.4871
 20
-30.5248
 11
33.5507
 21
-30.6019
  0
LINE
  8
0
 10
33.5507
 20
-30.6019
 11
33.6106
 21
-30.6819
  0
LINE
  8
0
 10
33.6106
 20
-30.6819
 11
33.6666
 21
-30.7646
  0
LINE
  8
0
 10
33.6666
 20
-30.7646
 11
33.7186
 21
-30.85
  0
LINE
  8
0
 10
33.7186
 20
-30.85
 11
33.7665
 21
-30.9377
  0
LINE
  8
0
 10
33.7665
 20
-30.9377
 11
33.8102
 21
-31.0276
  0
LINE
  8
0
 10
33.8102
 20
-31.0276
 11
33.8496
 21
-31.1195
  0
LINE
  8
0
 10
33.8496
 20
-31.1195
 11
33.8845
 21
-31.2132
  0
LINE
  8
0
 10
33.8845
 20
-31.2132
 11
33.9149
 21
-31.3083
  0
LINE
  8
0
 10
33.9149
 20
-31.3083
 11
33.9408
 21
-31.4049
  0
LINE
  8
0
 10
33.9408
 20
-31.4049
 11
33.962
 21
-31.5026
  0
LINE
  8
0
 10
33.962
 20
-31.5026
 11
33.9786
 21
-31.6011
  0
LINE
  8
0
 10
33.9786
 20
-31.6011
 11
33.9905
 21
-31.7004
  0
LINE
  8
0
 10
33.9905
 20
-31.7004
 11
33.9976
 21
-31.8001
  0
LINE
  8
0
 10
33.9976
 20
-31.8001
 11
34
 21
-31.9
  0
LINE
  8
0
 10
34
 20
-31.9
 11
33.9976
 21
-31.9999
  0
LINE
  8
0
 10
33.9976
 20
-31.9999
 11
33.9905
 21
-32.0996
  0
LINE
  8
0
 10
33.9905
 20
-32.0996
 11
33.9786
 21
-32.1989
  0
LINE
  8
0
 10
33.9786
 20
-32.1989
 11
33.962
 21
-32.2974
  0
LINE
  8
0
 10
33.962
 20
-32.2974
 11
33.9408
 21
-32.3951
  0
LINE
  8
0
 10
33.9408
 20
-32.3951
 11
33.9149
 21
-32.4916
  0
LINE
  8
0
 10
33.9149
 20
-32.4916
 11
33.8845
 21
-32.5868
  0
LINE
  8
0
 10
33.8845
 20
-32.5868
 11
33.8496
 21
-32.6805
  0
LINE
  8
0
 10
33.8496
 20
-32.6805
 11
33.8102
 21
-32.7724
  0
LINE
  8
0
 10
33.8102
 20
-32.7724
 11
33.7665
 21
-32.8623
  0
LINE
  8
0
 10
33.7665
 20
-32.8623
 11
33.7186
 21
-32.95
  0
LINE
  8
0
 10
33.7186
 20
-32.95
 11
33.6666
 21
-33.0353
  0
LINE
  8
0
 10
33.6666
 20
-33.0353
 11
33.6106
 21
-33.1181
  0
LINE
  8
0
 10
33.6106
 20
-33.1181
 11
33.5507
 21
-33.1981
  0
LINE
  8
0
 10
33.5507
 20
-33.1981
 11
33.4871
 21
-33.2752
  0
LINE
  8
0
 10
33.4871
 20
-33.2752
 11
33.4198
 21
-33.3492
  0
LINE
  8
0
 10
33.4198
 20
-33.3492
 11
33.3492
 21
-33.4198
  0
LINE
  8
0
 10
33.3492
 20
-33.4198
 11
33.2752
 21
-33.4871
  0
LINE
  8
0
 10
33.2752
 20
-33.4871
 11
33.1981
 21
-33.5507
  0
LINE
  8
0
 10
33.1981
 20
-33.5507
 11
33.1181
 21
-33.6106
  0
LINE
  8
0
 10
33.1181
 20
-33.6106
 11
33.0353
 21
-33.6666
  0
LINE
  8
0
 10
33.0353
 20
-33.6666
 11
32.95
 21
-33.7186
  0
LINE
  8
0
 10
32.95
 20
-33.7186
 11
32.8623
 21
-33.7665
  0
LINE
  8
0
 10
32.8623
 20
-33.7665
 11
32.7724
 21
-33.8102
  0
LINE
  8
0
 10
32.7724
 20
-33.8102
 11
32.6805
 21
-33.8496
  0
LINE
  8
0
 10
32.6805
 20
-33.8496
 11
32.5868
 21
-33.8845
  0
LINE
  8
0
 10
32.5868
 20
-33.8845
 11
32.4916
 21
-33.9149
  0
LINE
  8
0
 10
32.4916
 20
-33.9149
 11
32.3951
 21
-33.9408
  0
LINE
  8
0
 10
32.3951
 20
-33.9408
 11
32.2974
 21
-33.962
  0
LINE
  8
0
 10
32.2974
 20
-33.962
 11
32.1989
 21
-33.9786
  0
LINE
  8
0
 10
32.1989
 20
-33.9786
 11
32.0996
 21
-33.9905
  0
LINE
  8
0
 10
32.0996
 20
-33.9905
 11
31.9999
 21
-33.9976
  0
LINE
  8
0
 10
31.9999
 20
-33.9976
 11
31.9
 21
-34
  0
LINE
  8
0
 10
31.9
 20
-34
 11
31.8001
 21
-33.9976
  0
ENDSEC
  0
SECTION
  2
OBJECTS
  0
DICTIONARY
  0
ENDSEC
  0
EOF
